<?xml version="1.0" encoding="utf-8"?>
<!-- Generator: Adobe Illustrator 16.0.0, SVG Export Plug-In . SVG Version: 6.00 Build 0)  -->
<!DOCTYPE svg PUBLIC "-//W3C//DTD SVG 1.1//EN" "http://www.w3.org/Graphics/SVG/1.1/DTD/svg11.dtd">
<svg version="1.1" xmlns="http://www.w3.org/2000/svg" xmlns:xlink="http://www.w3.org/1999/xlink" x="0px" y="0px" width="277.7px"
	 height="222.3px" viewBox="0 0 277.7 222.3" enable-background="new 0 0 277.7 222.3" xml:space="preserve">
<g id="Layer_2">
	<path fill="#A8A8A8" d="M117.102,138.292c-0.439-0.19-0.832-0.442-1.193-0.734c-0.032-0.077-0.064-0.155-0.098-0.232
		c-0.691-1.929-1.79-3.708-2.383-5.688c-0.137-0.458-0.568-0.67-0.989-0.676c-0.045-0.152-0.089-0.303-0.132-0.45
		c-0.122-0.418-0.511-0.738-0.957-0.729c-0.042,0.001-0.083,0.002-0.125,0.003c-0.313,0.007-0.562,0.141-0.73,0.339
		c-2.278-0.495-5.136,0.723-7.048,1.425c-1.079,0.396-2.182,0.78-3.292,1.153c0.685-0.571,0.472-1.803-0.555-1.794
		c-2.454,0.021-4.908,0.316-7.358,0.174c-1.194-0.069-3.124-0.155-3.904,0.991c-0.655,0.965-0.468,1.918,0.059,2.775
		c0.289,1.375,0.86,2.865,1.104,3.749c1.208,4.375,2.4,8.76,4.293,12.897c0.168,0.368,0.685,0.541,1.054,0.429
		c3.963-1.207,7.432-3.509,10.86-5.772c3.627-2.395,7.857-3.663,11.394-6.144C117.64,139.631,117.851,138.616,117.102,138.292z
		 M95.092,149.855c-1.625-3.621-2.63-7.43-3.877-11.192c-0.223-0.673-0.425-1.353-0.631-2.031c0.914,0.263,1.932,0.194,2.891,0.04
		c4.537-0.731,8.935-2.814,13.291-4.188c1.802-0.568,3.126-0.561,4.13,0.196c0.63,1.947,1.473,4.002,2.805,5.525
		c0.141,0.282,0.296,0.561,0.469,0.832c0.043,0.118,0.087,0.236,0.127,0.355c-2.71,1.492-5.688,2.481-8.297,4.19
		C102.509,145.871,99.044,148.419,95.092,149.855z"/>
	<path fill="#A8A8A8" d="M114.176,138.824c-0.026-0.034-0.054-0.066-0.08-0.101c0.015-0.182-0.011-0.373-0.141-0.573
		c-0.807-1.243-1.467-2.653-2.278-3.932c0.439-0.446,0.338-1.183-0.203-1.549c-0.389-0.296-0.806-0.546-1.25-0.75
		c-0.227-0.119-0.445-0.146-0.643-0.116c-0.232-0.181-0.469-0.357-0.732-0.509c-0.69-0.397-1.794,0.271-1.456,1.119
		c0.102,0.254,0.218,0.493,0.333,0.736c-0.628-0.025-1.261-0.061-1.89,0.046c-1.833,0.311-3.572,0.939-5.375,1.375
		c-2.697,0.65-5.453,1-8.091,1.796c-0.26-0.607-1.124-0.768-1.595-0.291c-0.103,0.104-0.193,0.216-0.294,0.32
		c-0.049-0.379-0.078-0.755-0.058-1.121c0.035-0.641-1.021-0.794-1.128-0.152c-0.144,0.861-0.107,1.725,0.029,2.581
		c-0.348,0.541-0.145,1.149,0.311,1.409c0.302,1.097,0.714,2.173,1.098,3.201c1.001,2.681,2.298,5.246,3.532,7.823
		c0.197,0.412,0.687,0.514,1.09,0.443c3.104-0.541,5.616-2.789,8.068-4.612c3.196-2.377,6.998-3.833,10.55-5.587
		C114.606,140.07,114.538,139.291,114.176,138.824z M102.993,143.843c-2.018,1.414-3.966,3.273-6.262,4.275
		c0.219-0.304,0.284-0.73,0.084-1.085c-1.584-2.823-2.989-5.707-3.918-8.793c2.864-0.909,5.939-1.242,8.841-1.942
		c1.885-0.455,3.603-1.206,5.58-1.168c0.521,0.01,1.023,0.017,1.513-0.009c0.925,1.419,2.015,2.709,3.102,4.049
		C108.9,140.61,105.74,141.918,102.993,143.843z"/>
	<path fill="#A8A8A8" d="M112.086,135.567c-0.023,0.007-0.046,0.015-0.069,0.021c-0.133-0.339-0.417-0.623-0.779-0.679
		c-0.075-0.095-0.173-0.169-0.281-0.232c0.01-0.123-0.008-0.258-0.063-0.405c-0.609-1.631-1.623-2.305-2.845-2.405
		c-0.195-0.106-0.438-0.139-0.714-0.052c-0.086,0.027-0.175,0.047-0.262,0.073c-0.181-0.077-0.384-0.117-0.613-0.073
		c-1.217,0.232-2.331,0.729-3.5,1.125c-0.354,0.12-0.546,0.371-0.63,0.652c-1.491,0.507-2.993,0.995-4.357,1.823
		c-0.347,0.21-0.483,0.574-0.46,0.926c-0.104,0.037-0.206,0.071-0.302,0.099c-0.07,0.02-0.114,0.058-0.173,0.086
		c-0.223-0.696-1.022-0.996-1.641-0.454c-0.416,0.364-0.775,0.762-1.116,1.172c-0.116-0.286-0.232-0.572-0.349-0.857
		c-0.222-0.544-0.723-0.73-1.162-0.656c-0.36-0.167-0.885,0.016-0.928,0.545c-0.271,3.386,0.812,7,2.592,9.977
		c0.118,0.629,0.225,1.26,0.298,1.898c0.021,0.184,0.086,0.333,0.169,0.465c0.207,0.424,0.668,0.684,1.197,0.44
		c0.011-0.004,0.021-0.008,0.032-0.012c0.032-0.017,0.063-0.016,0.095-0.036c0.551-0.338,1.146-0.688,1.754-1.053
		c0.224,0.067,0.479,0.062,0.747-0.072c2.387-1.198,4.604-2.678,6.688-4.334c0.976-0.629,1.961-1.239,2.971-1.807
		c1.32-0.531,2.636-1.074,3.841-1.859c0.461-0.3,0.529-0.885,0.343-1.325c0.186-0.292,0.183-0.704,0.023-1.023
		c0.086-0.051,0.172-0.1,0.259-0.15C113.823,136.811,113.179,135.262,112.086,135.567z M108.923,134.572
		c-0.116,0.009-0.231,0.026-0.346,0.038c-0.41-0.21-0.706-0.46-0.682-0.694C108.343,133.981,108.694,134.191,108.923,134.572z"/>
	<path fill="#A8A8A8" d="M160.969,36.294c-0.125-0.177-0.301-0.313-0.506-0.383c-0.004,1.24-0.033,2.476-0.207,3.699
		c0.009,0.128,0.013,0.256,0.019,0.385c0.162-0.074,0.309-0.186,0.405-0.36c0.357-0.645,0.679-1.394,0.745-2.135
		C161.465,37.053,161.342,36.493,160.969,36.294z"/>
	<path fill="#A8A8A8" d="M181.79,86.566c-0.341-0.74-0.627-1.428-1.052-2.104c-0.732-1.691-1.304-3.461-2.091-5.128
		c-1.335-2.823-2.683-5.692-4.203-8.422c-1.638-2.939-3.262-5.779-4.495-8.923c-1.251-3.188-2.25-6.475-3.358-9.714
		c-1.153-3.368-2.104-6.774-3.191-10.162c-0.383-1.193-1.318-4.903-2.94-5.648c-0.008,0.775-0.036,1.548-0.108,2.317
		c0.262,0.727,0.455,1.572,0.554,1.877c0.544,1.675,1.027,3.372,1.516,5.064c1.12,3.887,2.46,7.675,3.742,11.514
		c1.833,5.488,4.162,10.365,6.971,15.403c1.39,2.494,2.492,5.155,3.8,7.696c1.209,2.35,1.789,4.949,3.145,7.231
		C180.741,88.687,182.317,87.709,181.79,86.566z"/>
	<path fill="#A8A8A8" d="M172.869,68.486c-3.326-6.576-6.49-13.268-9.146-20.141c-0.678-1.755-1.319-3.525-1.937-5.303
		c-0.41-1.18-0.718-2.866-1.472-3.938c-0.019,0.169-0.033,0.338-0.058,0.506c0.015,0.218,0.026,0.437,0.031,0.655
		c0.001,0.019,0.011,0.032,0.011,0.052v0.5c0,0.652-0.649,0.875-1.111,0.684c0.167,0.562,0.372,1.102,0.516,1.55
		c0.628,1.963,1.377,3.896,2.113,5.82c2.608,6.809,5.711,13.462,9.024,19.961c-0.012,0.165,0.003,0.331,0.075,0.469
		c0.194,0.369,0.425,0.561,0.84,0.634C172.615,70.086,173.278,69.296,172.869,68.486z"/>
	<path fill="#A8A8A8" d="M185.958,86.793c-1.428-1.167-3.679-0.243-5.309-0.058c-1.707,0.193-2.258-1.781-2.777-3.005
		c-0.815-1.921-1.799-3.739-2.526-5.707c-1.247-3.371-2.503-6.499-4.243-9.649c-1.844-3.339-2.953-7.035-4.853-10.339
		c-0.337-0.586-1.114-0.164-1.021,0.43c0.563,3.582,2.169,6.984,3.79,10.197c0.979,1.939,2.104,3.738,2.919,5.764
		c0.766,1.902,1.378,3.863,2.118,5.774c0.604,1.56,1.435,3.004,2.101,4.533c0.541,1.242,1.034,2.446,2.045,3.38
		c0.67,0.62,1.595,0.653,2.448,0.611c1.058-0.053,3.223-0.996,4.125-0.398C185.692,88.934,186.82,87.498,185.958,86.793z"/>
	<path fill="#A8A8A8" d="M179.434,86.961c-0.249-0.583-0.548-1.248-1.003-1.7c-0.1-0.099-0.207-0.152-0.314-0.175
		c-0.167-0.196-0.348-0.379-0.565-0.529c-0.434-0.297-0.897,0.189-0.812,0.624c0.088,0.442,0.338,0.839,0.524,1.245
		c0.218,0.473,0.436,0.947,0.668,1.413c0.212,0.424,0.802,0.54,1.189,0.312C179.569,87.889,179.62,87.397,179.434,86.961z"/>
	<path fill="#A8A8A8" d="M179.979,86.901c-0.111-0.175-0.214-0.354-0.316-0.534c-0.007-0.017-0.007-0.035-0.015-0.052
		c-0.167-0.366-0.272-0.747-0.498-1.084c-0.465-0.695-1.592-0.356-1.541,0.434c-0.02,0.087-0.028,0.179-0.009,0.274
		c0.136,0.669,0.622,1.214,0.955,1.794C179.147,88.602,180.543,87.815,179.979,86.901z"/>
	<path fill="#A8A8A8" d="M185.107,87.164c-1.926,0.361-3.863,0.719-5.831,0.665c-1.916-0.052-1.828-3.468-3.222-4.55
		c-0.178-0.138-0.511-0.076-0.493,0.205c0.119,1.904,0.45,5.209,2.553,5.953c2.124,0.75,5.341-0.064,7.467-0.557
		C186.708,88.619,186.221,86.956,185.107,87.164z"/>
	<path fill="#A8A8A8" d="M185.35,86.874c-0.501,0.016-1.002,0.119-1.5,0.172c-0.563,0.06-0.563,0.815,0,0.875
		c0.498,0.053,0.999,0.156,1.5,0.172C186.136,88.117,186.136,86.85,185.35,86.874z"/>
	<path fill="#A8A8A8" d="M185.757,86.91c-0.665-0.782-1.854-0.392-2.74-0.393c-0.422,0-0.535,0.672-0.102,0.752
		c0.883,0.162,2.117,0.785,2.842-0.045C185.842,87.127,185.84,87.007,185.757,86.91z"/>
	<path fill="#A8A8A8" d="M160.645,43.948c-0.823-2.82,0.528-5.481,0.313-8.298c-0.044-0.577-0.817-0.559-0.883,0
		c-0.185,1.583-0.46,3.063-0.552,4.584c-0.189,1.065-0.313,2.143-0.125,3.286c0.389,2.372,1.626,5.227,3.085,7.129
		c0.216,0.282,0.697,0.132,0.6-0.253C162.522,48.174,161.291,46.159,160.645,43.948z"/>
	<path fill="#A8A8A8" d="M219.102,167.677c-0.29-1.468-0.751-4.195-2.474-4.635c-1.033-0.265-1.47,1.049-0.686,1.627
		c0.51,0.377,0.802,1.374,0.996,2.279c-3.37,0.117-6.72,1.307-9.988,2.001c-4.46,0.947-8.711,2.305-13.235,2.976
		c-0.779,0.115-1.555,0.25-2.346,0.13c-0.715-0.108-1.565-2.698-1.751-3.163c-0.659-1.653-1.068-3.392-1.725-5.046
		c-0.697-1.758-0.763-3.638-1.382-5.417c-0.776-2.234-1.448-4.466-2.12-6.735c-0.243-0.82-1.576-0.691-1.527,0.207
		c0.118,2.182,0.662,4.176,1.411,6.226c0.839,2.299,1.092,4.688,1.995,6.967c1.063,2.682,1.547,7.624,4.572,8.873
		c1.268,0.524,3.285-0.12,4.574-0.259c2.59-0.278,5.119-1.003,7.613-1.724c2.354-0.681,4.743-1.175,7.138-1.69
		c2.671-0.576,5.202-1.489,7.974-1.356C218.829,168.97,219.221,168.281,219.102,167.677z"/>
	<path fill="#A8A8A8" d="M215.699,162.023c-1.469-0.436-3.055,0.263-4.435,0.73c-5.951,2.02-12.579,2.307-18.395,4.712
		c-0.695,0.288-0.675,1.409,0.189,1.396c2.455-0.036,4.958-0.585,7.432-1.243c0.103,0.221,0.305,0.396,0.637,0.451
		c1.329,0.22,14.275-3.294,14.513-1.988c0.297,1.265,2.148,0.716,1.922-0.529C217.293,164.406,217.083,162.434,215.699,162.023z"/>
	<path fill="#A8A8A8" d="M191.121,167.943c-1.507-2.82-2.468-5.906-3.291-8.987c-0.736-2.757-1.174-5.162-2.76-7.587
		c-0.366-0.561-1.131-0.304-1.193,0.323c-0.132,1.318,0.536,2.297,1.022,3.497c0.656,1.616,0.802,3.46,1.247,5.142
		c0.759,2.865,1.751,5.709,3.133,8.337C189.465,169.841,191.926,169.452,191.121,167.943z"/>
	<path fill="#A8A8A8" d="M192.758,169.639c-0.908-4.63-3.418-8.651-5.689-12.661c-0.329-0.58-1.272-0.189-1.078,0.455
		c0.619,2.054,1.814,3.934,2.54,5.977c0.791,2.23,1.817,4.439,2.329,6.753l0.034-0.034
		C191.244,171.268,193.016,170.956,192.758,169.639z"/>
	<path fill="#A8A8A8" d="M217.517,166.199c-7.874-0.973-15.624,0.5-23.381,1.706c-0.146-0.104-0.319-0.175-0.535-0.159
		c-1.289,0.09-2.557,0.191-3.806,0.531c-0.685,0.187-0.83,0.821-0.601,1.326c-0.14,0.342-0.015,0.685,0.236,0.909
		c-0.082,0.041-0.155,0.081-0.206,0.114c-0.826,0.556-0.506,1.799,0.501,1.85c0.596,0.03,1.177-0.018,1.751-0.104
		c0.091,0.03,0.183,0.06,0.29,0.063c4.006,0.118,8.421-0.425,12.383-1.039c2.245-0.348,4.431-1.092,6.558-1.865
		c2.24-0.814,4.457-1.048,6.81-1.346C218.792,168.024,218.796,166.356,217.517,166.199z"/>
	<path fill="#A8A8A8" d="M215.934,165.082c-1.493,0.007-3.366,0.165-4.692,0.899c-0.756,0.419-0.456,1.76,0.457,1.685
		c0.698-0.058,1.355-0.294,2.043-0.429c0.294-0.058,0.591-0.087,0.888-0.114c0.442,0.027,0.897-0.016,1.305-0.07
		C217.15,166.889,217.246,165.076,215.934,165.082z"/>
	<path fill="#A8A8A8" d="M186.355,159.075c-0.726-1.659-1.517-3.234-2.113-4.949c-0.384-1.102-0.802-2.172-1.776-2.866
		c-0.254-0.181-0.587,0.171-0.423,0.422c0.749,1.147,0.91,2.68,1.181,3.996c0.299,1.452,1.041,2.922,1.874,4.132
		C185.634,160.588,186.917,159.808,186.355,159.075z"/>
</g>
<g id="Layer_1">
	<path d="M220.299,163.1c8.201-1.7,15.9-3.3,23.701-4.899c-0.5-1.301-1-2.301-1.301-3.301c-7-16.9-14.1-33.6-21.1-50.5
		c-0.301-0.5-1.301-1.2-1.801-1.2c-7.699,0.5-15.299,1.2-22.799,2c-1.301,0.2-2-0.1-2.5-1.3c-1.701-4.2-3.5-8.2-5.201-12.2
		c-0.699-1.8-1.399-3.5-2.199-5.5c9.699-0.5,18.9-0.8,28.8-1.3c-0.899-2.4-1.5-4-2.2-5.7c-0.8-1.8-2-3.7-2.8-5.5
		C205.5,61.5,200.2,49.4,195,37.2c-0.701-1.3-1.201-2-2.701-2c-8.199-0.2-16.6-0.7-24.799-0.7c-2.101,0-3.101-0.7-3.801-2.7
		c-0.8-2.3-1.699-4.7-2.5-7c-0.5-1.5-1.5-2-3-2.2c-21.9-1.5-43.9-2.3-65.8-2c-9.7,0.2-19.6,0.7-29.3,1.2c-0.7,0.2-1.7,0.5-2,1
		c-1.5,3-3,6.2-4.5,9.4c-1,2.3-1.1,4.5-0.3,7c1.9,5.5,3.5,11.2,5.2,16.9c-8.2,0.8-16,1.7-24.4,2.5c2.2,8.2,4.2,15.9,6.4,23.4
		c4.5,16,9.4,31.9,13.9,48c0.7,2.601,1.8,3.601,4.5,3.301c2.8-0.301,5.7-0.1,8.5-0.301c4.9-0.299,9.7-0.5,14.6-0.799
		c2.2,6.899,4,13.6,6.2,20.1c4.7,14.1,7.6,28.6,14.1,42.199c3.1,6.101,6.1,7.9,12.6,6.9c7.9-1,15.7-2,23.601-3.3
		c22-3.601,44.299-7.3,66.399-11c7.899-1.3,12.101-6.5,14.899-13.399c0.601-1.4,0.101-3.4-0.199-4.9
		C222.1,166.8,221.1,165.1,220.299,163.1z M218.2,105.8c1.301,0,2.1-0.2,2.801,1.3C227.5,123,234.2,139.1,240.9,155
		c0.101,0.301,0.101,0.701,0.3,1.5c-7,1.101-14,2.5-20.9,3.801c-7.199,1.3-14.399,2.699-21.6,4c-2.199,0.3-3.199,0.199-4-2
		C187.5,145.5,180.1,129,172.9,112.4c-0.3-0.699-0.5-1.4-0.8-2.2c5.3-0.6,10.5-1.3,16-1.7C198.1,107.6,208.2,106.8,218.2,105.8z
		 M175.4,36C181,36,186.5,36.1,192,36.3c1,0,2.199,0.6,2.5,1.3c6,14.9,12.1,29.8,18.1,44.9c-10.4,0.7-20.801,1.2-31.5,1.7
		c-6.301-15.9-12.801-31.9-19.2-48C166.7,36.2,171.299,36.2,175.4,36z M58.8,35.4c-0.2-0.7,0-1.5,0.3-2.2c1-2.3,2.4-4.7,3.2-7
		c0.9-2,2.2-2.5,4.2-2.5c5.7,0.2,11.5,0,17.2,0c17.7,0.1,35.3,0.3,53.2,0.8c7.101,0.2,14.3,0.9,21.3,1.2c1.5,0,2,0.5,2.5,1.8
		c0.801,2.3,1.801,4.5,2.801,7c-1,0.1-1.801,0.1-3,0.3c0,1,0,1.9,0.299,2.7c4.333,12.444,8.747,25.055,13.093,37.604
		c0.308-0.009,0.593,0.151,0.649,0.557c0.206,1.487,0.928,2.81,1.464,4.199c0.313,0.81,0.617,1.622,0.927,2.432
		c0.133,0.158,0.263,0.32,0.367,0.508c1.201,2.9,3.101,4.4,6.4,3.7c0.5,0,1.1,0.5,1.301,0.8c1.299,2.9,2.6,5.9,3.799,8.9
		c1.201,3,2.301,6.2,3.5,9.2c-0.399,0.1-0.5,0.3-0.699,0.3c-6.9,1.1-6.9,1.1-9.4-5.4c-1.807-4.682-3.607-9.306-5.304-14.074
		c-0.046-0.055-0.094-0.104-0.127-0.181c-0.716-1.671-1.346-3.373-2-5.069c-0.081-0.21-0.167-0.419-0.255-0.629
		c-0.041-0.013-0.07-0.036-0.114-0.046c-2.101-5.6-4.3-11.1-6.5-16.6l-3-7.5c-3.399-8.1-6.601-16.3-9.899-24.3
		c-0.301-0.7-1.101-1.7-1.801-1.7c-4-0.4-8.199-0.5-12.4-0.7c-20.599-1.2-41-0.4-61.599,0.8c-0.3,0-0.8,0.2-1.3,0.7h56.9
		c5.5,0,11.201,0.5,16.701,0.8c0.899,0.2,1.899,0.8,2.199,1.5c9.4,24.3,18.9,48.5,28.301,72.8c0.199,0.1,0.199,0.3,0.199,0.8
		c-4,0.9-8.199,1.5-12.699,2.2c4.899,13.2,9.6,26.2,14.6,39.8c-19.4,3.5-39,5.5-58.6,8.7c-3.3-8.8-6.7-17.7-10.2-26.899
		c6.2-0.5,12.2-0.801,18.4-1.301c-2.3-7-4.2-13.5-6.5-19.9c-5.6-15.3-11.1-30.3-16.6-45.4c-0.8-2.4-1.5-4.7-2.3-6.9
		c-0.4-0.5-1.2-1.2-1.7-1.2c-5.8-0.1-11.8-0.3-17.7-0.3c-1.7,0-2.3-0.7-3-2.2c-2.3-6.3-5-12.8-7.5-19.2c-0.4-0.9-0.9-1.9-1.7-2.7
		c1.5,8.4,5.3,15.9,8,24.3c-2.8,0-5.3,0-8-0.2c-0.5,0-1.2-1.1-1.5-1.8C73,48.1,71.2,42,69,36c-0.7-1.8-1.5-3.5-2.7-5
		c2.5,8.1,5,16.3,7.5,24.8c-2.8,0.1-5.3,0.3-8,0.3c-0.5,0-1.3-0.8-1.5-1.3C62.5,48.5,60.6,41.9,58.8,35.4z M74.3,130.5
		c-3.8,0.201-7.9,0.4-11.7,0.701c-1.8,0.1-1.7-1.201-2-2.201c-3.2-9.6-6.2-19.1-9.2-28.799c-3.6-12-7.3-24.2-11-36.3
		c-0.5-1.5-1-2.9-1.7-4.7c7.7-0.4,15.2-0.9,22.8-1.5c14.2-0.3,28.6-0.5,42.8-0.8c2,0,2.6,0.5,3.3,2.3c6.8,19.8,13.9,39.4,20.9,59.1
		c1,2.8,1.8,5.5,2.8,8.5c-3.5,0.4-6.8,0.5-10,0.699C105.6,128.5,90,129.5,74.3,130.5z M218.4,177.8C214.5,182,210,185.201,204,186
		c-22.801,3.5-45.5,7.201-68.3,10.9c-5.4,0.9-10.5,1.5-15.9,2.2c-1.2,0.2-2.3,0.2-3.5,0.2c-3.7,0.1-6.4-1.6-7.7-4.9
		c-1.3-3.699-2.8-7.4-4-11.199c-5.4-16.801-10.5-33.5-15.9-50.4h0.835c0.083-0.049,0.173-0.092,0.28-0.121
		c1.464-0.4,2.952-0.619,4.452-0.754c0.828-0.304,1.656-0.274,2.507-0.159c0.004-0.001,0.009-0.001,0.013-0.001
		c0,0.001,0,0.002,0,0.002c0.095,0.014,0.19,0.022,0.286,0.037c0.276,0.043,0.461,0.177,0.587,0.348
		c0.998,0.377,1.515,1.505,1.817,2.721c1.148,2.526,1.779,5.255,2.135,8.01c4.439,13.429,8.815,26.751,13.188,40.218
		c0.5,0,0.9-0.2,1.2-0.2c-0.2-1-0.2-2-0.5-2.8c-4-12.601-7.9-24.899-11.9-37.5c-0.614-1.667-0.926-3.412-1.33-5.166
		c-0.323-0.928-0.546-1.886-0.891-2.812c-0.054-0.146-0.067-0.279-0.063-0.405c-0.281-0.556-0.156-1.309,0.624-1.476
		c2.91-0.626,5.793-1.406,8.785-1.477c0.236-0.006,0.417,0.061,0.571,0.152c0.029,0.005,0.061,0.009,0.089,0.013v-0.001
		c0.006,0.001,0.012,0.003,0.018,0.004c0.161,0.025,0.31,0.058,0.452,0.101c0.031,0.007,0.062,0.014,0.093,0.021
		c0.045,0.01,0.073,0.036,0.114,0.051c0.061,0.023,0.127,0.055,0.191,0.085c0.023,0.015,0.055,0.021,0.076,0.037
		c0.042,0.021,0.08,0.035,0.125,0.06c0.025,0.014,0.037,0.034,0.061,0.049c0.732,0.376,1.244,1.16,1.686,2.265
		c2.8,7.5,5.8,14.899,8.5,22.399c0.9,2.4,2.2,3,4.4,2.701c7.4-1,14.699-2,22.1-3c11.2-1.5,22.301-3,33.301-4.5
		c1.799-0.101,2.799,0.399,3.5,2.199c1.5,4.301,3.299,8.5,5,12.7c0.5,1.5,1.699,1.8,3.199,1.5c7-1.3,14-2.5,20.9-4
		c1.6-0.3,2.3,0.2,2.8,1.5s1.101,2.601,1.8,3.8C221.7,172.6,220.7,175.3,218.4,177.8z"/>
	<path fill="#FFFFFF" d="M38.7,59.2c7.7-0.3,15.2-1,22.8-1.2c14.2-0.3,28.6-0.5,42.8-0.8c2,0,2.7,0.7,3.3,2.3
		c6.9,19.7,13.9,39.3,20.9,59.1c1,2.7,1.8,5.5,2.8,8.5c-3.7,0.2-6.9,0.3-10,0.7c-15.7,1-31.3,2-47,3c-3.8,0.199-7.9,0.3-11.7,0.699
		c-1.8,0.201-1.8-1.199-2-2.199c-3-9.5-6.2-19.2-9.2-28.8c-3.7-12.1-7.4-24.3-11-36.3C39.9,62.5,39.4,61,38.7,59.2z"/>
	<path fill="#FFFFFF" d="M172.1,110.2c5.4-0.7,10.5-1.3,15.699-1.8c10-1,20.101-1.8,30.101-2.7c1.2-0.2,2.2-0.2,2.8,1.3
		c6.7,16.1,13.2,32,19.9,47.9c0.199,0.301,0.199,0.801,0.3,1.5c-7,1.301-13.899,2.7-20.899,3.801c-7.201,1.299-14.4,2.5-21.601,4
		c-2,0.299-3,0-4-2c-7.2-16.701-14.601-33.301-21.8-49.9C172.6,111.701,172.4,111.1,172.1,110.2z"/>
	<path fill="#FFFFFF" d="M161.9,36.2c4.899,0,9.2,0,13.7,0c5.5,0,11,0.2,16.6,0.3c0.801,0,2.2,0.7,2.5,1.3
		c6,14.9,12.1,29.8,18.1,44.9c-10.399,0.5-20.799,1-31.5,1.7C174.799,68.4,168.4,52.3,161.9,36.2z"/>
	<path d="M218.6,172c-1.2,2.201-79.2,15.4-87.4,14.9C160.2,181,189.5,176.701,218.6,172z"/>
	<path d="M163.2,167.5c0-3.699,2.301-6.699,5-6.5c4.2,0.201,8.2,4,8,7.701c-0.199,2.699-3,5.5-5.9,5.399
		C166.6,173.8,163.2,170.8,163.2,167.5z M170.4,172c2.3,0,4.2-1.799,4.2-4c0-2.199-3.7-5.199-6.4-5.199
		c-1.3,0-3.199,2.3-3.199,4.199C165.1,169.5,167.7,172,170.4,172z"/>
	<path d="M175.895,76.152c-0.345-0.671-0.714-1.312-1.168-1.916c-0.329-0.438-1.096-0.203-0.931,0.392
		c0.124,0.447,0.316,0.865,0.512,1.283c0.143,0.348,0.309,0.69,0.452,1.028c0.097,0.227,0.308,0.303,0.518,0.278
		c0.209,0.431,0.448,0.856,0.861,1.083c0.227,0.125,0.547-0.029,0.535-0.307C176.646,77.332,176.191,76.729,175.895,76.152z"/>
</g>
</svg>
