<?xml version="1.0" encoding="utf-8"?>
<!-- Generator: Adobe Illustrator 16.0.0, SVG Export Plug-In . SVG Version: 6.00 Build 0)  -->
<!DOCTYPE svg PUBLIC "-//W3C//DTD SVG 1.1//EN" "http://www.w3.org/Graphics/SVG/1.1/DTD/svg11.dtd">
<svg version="1.1" id="Layer_1" xmlns="http://www.w3.org/2000/svg" xmlns:xlink="http://www.w3.org/1999/xlink" x="0px" y="0px"
	 width="243.5px" height="245.7px" viewBox="0 0 243.5 245.7" enable-background="new 0 0 243.5 245.7" xml:space="preserve">
<g>
	<path stroke="#000000" stroke-width="0.5" stroke-miterlimit="10" d="M238.4,161.299c-0.301-1.799-0.301-3.799-0.601-5.6
		c-0.399-2.1-1-4.1-1.6-6.1c-0.9-3.1-1.8-6.1-2.8-9.2c-0.4-1.5-1.101-3-1.601-4.5c-1.3-3.7-2.5-7.3-3.7-11c-0.699-2-1.3-4-2.1-5.9
		c-0.8-1.7-1.8-3.3-2.7-5c0.4-0.3,0.7-0.6,2.101-0.6c1.899-1.2,3.5-2.7,4.8-4.7c0.899-1.5,1-3.9-0.101-5.4c-1-1.4-2.5-2.2-4.1-2.6
		c-4.3-1.2-8.5-2.6-13-2.2c-0.3,0-0.6-0.2-0.9-0.3c-1.8-0.8-3.399-1.6-5.199-2.2c-0.801-0.2-1.4-0.4-2-1.1
		c-0.601-0.8-1.5-1.5-2.4-1.8c-3.1-1-6.2-1.8-9.3-2.6c-0.7-0.2-1.2-0.3-1.5-1.1c-0.2-0.5-0.7-1-1.2-1.2c-4.2-1.7-8.4-3.3-13.1-2.7
		c-2,0.2-3.801,0.7-4.4,2.4c-2.7,0.8-5.1,1.5-7.4,2.3c-0.899,0.3-1.8,1-2.699,1c-2.4-0.1-4.4,1-6.601,1.7c-0.899,0.3-1.7,1-2.3,1.3
		h-3.2c-0.5,0-1,0.1-1.399,0c-1.4-0.4-2.801-0.8-4.101-1.2c-0.6-0.5-1.1-1.4-1.899-1.7c-4.2-1.8-8.601-2.5-13-0.9
		c-1.2,0.4-2.9,0.7-3,2.6c-3.7,0.2-7.3,0.7-10.7,2.2c0-0.1-0.1-0.3-0.1-0.4c0.3-3.7-1.5-6.7-5.1-7.5c-6-1.3-12.1-2.4-18.1-3.5
		c-1.8-0.4-3.8-0.4-5.5-0.5c0.4-0.3,1.1-0.6,1.2-1c0.4-1.2,0.7-2.5,0.7-3.7c-0.1-1.6-0.5-3.3-0.8-4.9c-0.2-1.2-0.3-2.4-0.6-3.5
		c-0.3-1-0.1-1.6,0.4-2.4c0.7-1.1,1.6-2.4,1.6-3.6c0.1-3.2-0.2-6.4-0.4-9.7c2.4-1.5,5-2.9,6.9-5.5c1.5-2,0.5-4.5-0.7-5.9
		c-2.3-2.4-5.3-3.4-8.4-3.9c-1.1-0.1-1.5-0.8-1.7-1.5c-0.3-1-0.3-2.1-0.3-3.2c0.1-2.3,0.2-4.7,0.6-7c0.4-2.4,1.2-4.8,1.9-7.1
		c0.3-0.9,0.6-1.7-0.2-2.3c-1.1-0.8-2.3-1.6-3.5-2c-3.4-1.2-6.9-2.3-10.4-3.4c-3-0.9-6-1.2-9.1-0.6c-1.8,0.3-3.7,0.1-5.6,0.4
		c-5.2,0.7-10.2,2.5-14.8,5.1c-3.7,2.1-7.6,4.2-10.5,7.6c-1,1.2-1.2,1.3-0.3,2.5c0.6,0.8,1.3,1.6,1.8,2.5c0.7,1.2,1.2,2.5,2,3.7
		c1.9,2.9,2.5,6.1,2.9,9.3c-1.8,0.8-3.5,1.6-5.2,2.4c-2.2,1.1-4.5,1.9-6,4.1c-1.2,1.8-1,5.2,0.9,6.5c1.9,1.4,4,2.1,6.3,2.3
		c-1.4,3.1-2.6,6.2-1.4,9.7c1.3,3.7,4.3,5.1,7.7,6c-1.4,4.1-1.2,5.5,1.4,6c0.1,0.4,0.2,0.8,0.2,1.1c-0.9,1-1.9,1.7-2.5,2.7
		c-0.5,0.8-1.1,1.4-2.1,1.6c-0.7,0.1-1.3,0.5-1.9,0.7c-4.8,1.6-9.5,3.6-14,5.9c-3.4,1.7-6.8,3.2-10,5.2c-2.9,1.8-5.4,4-8.1,6.1
		c-0.5,0.4-1,0.9-1.3,1.5c-1,2-1.2,4.2-0.6,6.2c0.9,3,2.1,5.9,3.1,8.9c0.7,2.3,2,4,3.8,5.4c0.7,0.6,1.5,1.1,2.2,1.799
		c2.1,2,4.4,2.5,7.1,1.4c0.2-0.1,0.6-0.1,0.8,0c1.6,1.301,3.2,2.6,4.8,4c1,0.9,2.2,1.4,3.5,1.4c1.1,0,2.2-0.301,3.4-0.5
		c-0.1,0.8-0.2,1.5-0.3,2.199c-0.4,3.4-0.7,6.701-1,10.101c-0.1,0.899,0,1.8-0.3,2.5c-0.6,1.5-1.4,2.8-2.2,4.2
		c-1.7,2.8-3.2,5.699-3.9,8.9c-0.9,4.199-1.9,8.5-2.7,12.799c-0.5,3.101,0.2,6.201,1.9,8.801c2.3,3.4,5.5,6,8.9,8.199
		C33.5,191.6,34,192,34.2,192.5c0.6,1.399,1,2.899,1.7,4.299c1.4,2.9,3,5.801,4.5,8.701c0.1,0.299,0.9,0.5,0.9,0.5
		c0.4-0.601,1.1-1.301,1.1-1.9c-0.1-2.301,0.4-4.4,1.2-6.6c1.6,0.799,3,1.5,4.5,2.299c0.2,0.201,0.5,0.701,0.5,1
		c-0.3,2-0.7,3.9-1.2,5.9c-0.1,0.4-0.7,0.7-1,1c-0.4,0.4-1.1,0.801-1.2,1.301c-0.2,0.899-0.8,1.399-1.4,1.899
		c-1.4,1.101-1.2,2.5,0.2,3.399c0.2,0.201,0.4,0.301,0.6,0.4c0.1,0.5,0.2,1,0.1,1.4c0,0.5-0.1,1-0.4,1.3c-0.5,0.7-1.3,1.2-1.9,1.899
		c-0.3,0.4-0.8,0.9-0.7,1.201c0.2,1.1,0.5,2.399,1.2,2.899c2.2,1.601,4.4,3.399,6.9,4.101c3.3,0.899,6.9,0.199,9.9-1.701
		c1.5-0.899,2.9-2,3.9-3.399c1.3-1.8,2-3.899,3-5.8c0.5-0.2,1.1-0.5,1.3-0.9c1.5-3.199,2.8-6.4,3.4-9.9
		c0.1-0.699,0.3-1.399,0.5-2.299c0.6,0.399,1.1,0.699,1.3,0.799c-0.4,0.801-0.7,1.4-1.1,2c-0.4,0.701-0.7,1.301-0.2,2.201
		c0.3,0.699,0.3,1.5,0.6,2.299c0.2,0.5,0.5,0.9,0.8,1.301c0.1,0.199,0.5,0.4,0.5,0.699c0.2,1,0.4,2,1.4,2.201
		c1,0.199,1.6-0.601,2.1-1.4c0-0.1,0.1-0.1,0.2-0.1c1.1,0.899,2.3,1.699,2.1,3.5c-0.1,0.899,0.2,1.799,0.2,2.699
		c-0.1,1.2,0,2.5-1.3,3.2c-0.6,0.399-1.2,0.8-1.6,1.3c-0.5,0.7-1.1,1.5-1.1,2.301c0,0.799,0.9,1.1,1.7,1.199c3.8,0.7,7.6,0.5,11-1.4
		c1-0.5,2.1-1.5,2.2-2.399c0.4-3.3,0.5-6.7,0.6-10.101c0-2.299-0.3-4.6-0.3-6.899c0-1.399-0.4-2.5-1.6-3.399c1.3-1,2.7-2,2.8-3.801
		c0-1.5,0.1-3.1,0-4.6c-0.2-1.7-0.5-3.5-0.7-5.2c-0.2-2.399-1.1-3.2-3.5-3.2h-6.2c0.5-1,1.2-1.8,1.4-2.6c1.2-5.2,2.6-10.4,3.6-15.7
		c1.3-6.5,2.4-13.2,3.2-19.8c0.7-5.4,0.9-10.801,1.3-16.2c0-0.2,0-0.3,0.1-0.5c1,1.5,1.7,3.2,3.6,3.7c0.1,0,0.3,0.6,0.2,0.9
		c-0.6,2.199-1.2,4.399-1.7,6.699c-1,5.1-2,10.2-2.9,15.301c-0.9,5.299-1.1,10.6-0.9,15.899c0.1,1.399,0,2.899,0.4,4.2
		c0.7,2.4,1.6,4.8,2.5,7.199c0.6,1.701,1.3,3.301,2.2,4.801c1.7,2.699,3.7,5.3,5.5,8c2.2,3.3,5.1,5.9,7.9,8.5c1.1,1,2.4,1.9,3.6,2.8
		c0.5,0.399,1.1,0.601,1.7,0.8H113c-0.2,1.5-0.6,3.1-0.7,4.7c-0.3,3.399,0.8,6.2,3.8,8c1.2,0.7,2.4,1.3,3.7,1.899
		c1.4,0.601,2.7,1.301,4.2,1.601c4.3,1,8.7,1.899,13,2.7c4.4,0.8,8.8,1.4,13.2,2c5.1,0.699,10.3,1.1,15.399,1.699
		c6.4,0.801,12.601-0.199,18.9-1.1c2.8-0.4,5.5-1,8.3-1.5c4.9-0.9,9.7-2.3,14.2-4.6c1.5-0.801,3.1-1.801,4.2-3.1
		c2.6-3,3-6.701,1.899-10.5c-0.399-1.4,0.101-1.801,1.101-2.4c1.8-1,3.6-2,5.3-3.2c2.8-2.101,5.2-4.399,7.6-6.899
		c3.801-4.101,6.2-8.801,7.801-14c1.399-4.301,2.6-8.5,3-13C238.2,169.1,238.9,165.2,238.4,161.299z M206.7,97.7
		c1.7,0.7,3.5,1.6,5,2.8c0.899,0.8,1.399,2.2,2,3.3c0.1,0.1-0.101,0.6-0.3,0.7c-0.7,0.4-1.4,0.9-2.101,1.1c-1.1,0.3-2.3,0.5-3.5,0.7
		c0.2-2.3-1.6-5.8-4.3-7.4C204.7,97.2,204.9,96.9,206.7,97.7z M215.4,103.1c0.6,0.1,1.1,0.2,1.6,0.4c0.7,0.4,1,0.9,0.6,1.7
		c-0.6,1.1-1.5,1.8-2.8,2c-1.3,0.1-2.7,0.3-4,0.4C212.9,106.5,215.1,105.9,215.4,103.1z M157.9,112.2c-3,0.5-5.801,0.2-8.5,0.1
		c0.199-1.1,0.5-2.1,0.699-3.1c1.4-0.3,2.9-0.6,4.601-0.8c0.3,0,0.7,0,1.1,0.1c0.601,0.1,1.3,0.2,1.9,0.4c0.1,0,0.2,0.2,0.3,0.3
		c-0.2,0-0.4,0-0.4,0C157.7,110.1,157.8,111.1,157.9,112.2z M133.5,107.4c0.8,0.4,1.5,0.7,2.1,1.1c1.301,0.9,2.7,0.7,4,0.4
		c1-0.2,1.9-0.7,2.9-1c0.2-0.1,0.5-0.3,0.7-0.2c1.6,0.3,3.2,0.5,4.5,1.7c0.2,0.3,0.6,0.4,1.1,0.7c-0.399,0.5-0.6,1.1-1,1.2
		c-1.5,0.4-3,1-4.5,1c-3.3,0-6.7-0.3-10-0.5c-0.3-0.1-0.6-0.3-1-0.5C133.8,110.2,133.8,108.9,133.5,107.4z M134.7,106.7
		c1-0.9,2.1-1.9,3.2-2.9c0.199-0.2,0.6-0.4,0.899-0.4c0.9-0.1,1.8-0.1,2.601-0.2c0.1,1.1,0.199,2.1,0.3,3.5
		C139.5,107.4,137.1,108.5,134.7,106.7z M144.6,106.5c-0.399-0.2-0.8-0.6-1.1-0.9c-0.9-0.9-0.8-1.7,0.3-2.3
		c1.601-0.9,3.3-1.8,5.3-1.6c0.801,0.1,1.5,0.4,1.5,1.1c0,1.9,0.801,3.3,2.301,4.6C149.9,107.8,147.2,107.7,144.6,106.5z M153,105.1
		c-0.6-0.6-0.9-1.6-0.9-2.4c0-1.7,0.9-3,2.7-3.4c0.8-0.2,1.7-0.2,2.5-0.3c3.5,0,5.9,3.2,5.7,6.4c0,0.8-0.3,1.7-1.7,1.5
		c-0.7-0.1-1.5,0.4-2.3,0.4C156.8,107.3,154.6,106.8,153,105.1z M168.4,103.4c-1.2,0.4-2.5,0.7-3.9,1c-0.8-2.1-1.3-4.1-3.5-5.1
		c0.1-0.1,0.1-0.2,0.2-0.3c0.7-0.1,1.399-0.1,2.1-0.3c0.8-0.3,1.601-0.8,2.4-1c2.3-0.7,4.5,0,6.7,0.8c1.199,0.4,1.3,1.1,0.5,2.2
		C171.8,102.2,170.1,102.8,168.4,103.4z M172.5,105.2c-0.8-0.3-1.4-0.5-2.2-0.8c0.5-0.3,0.9-0.6,1.4-0.9
		C171.9,104,172.2,104.5,172.5,105.2z M159.1,109.4c1.301-0.4,2.5-0.6,3.7-1c0.7-0.3,1.3-0.7,1.3-1.7c0-0.7,0.5-1,1.4-1.2
		c2.4-0.4,4.6-0.2,6.7,1.2c1,0.7,1.6,1.5,1.3,2.7c-0.3,1.3-1.5,2.8-2.5,2.8c-3.6,0.1-7.1,0.2-10.7,0.2c-1,0-1.399-0.5-1.3-1.5
		C159,110.3,159.1,109.8,159.1,109.4z M173.2,103.7c-0.4-0.6-0.601-1.1,0.1-1.6c0.101-0.1,0.3-0.2,0.4-0.4c1.6-2.2,1.2-3.6-1.3-4.7
		c-0.301-0.1-0.601-0.2-1-0.4c1.1-0.7,1.899-0.5,2.699,0c2.101,1.5,4.601,1.4,7,1.4c1.801,0,3.601-0.6,5.2-1.5
		c0.4-0.2,0.9,0,1.3,0.1c-2.6,1.7-3.199,2.9-2.199,4.9c-0.5,0.3-1,0.7-1.5,0.9c-1.301,0.5-1.9,1.5-2.301,2.8
		c-0.1,0.3-0.399,0.6-0.6,0.7C178,106.6,175.1,106.6,173.2,103.7z M174.3,95.7c0.601-0.9,1.3-1.8,2.2-2.9c3.2,1.5,6.8,1.7,10.6,1.3
		C185.7,96.8,178.4,97.4,174.3,95.7z M190,98.6c1.3,0.5,2.6,1,4.1,1.5c-0.1,0.3-0.199,0.6-0.3,0.9c-2,0.1-3.899,0.2-5.8,0.2
		c-0.5,0-1.1-0.2-1.3-0.5c-0.2-0.3,0-1,0.2-1.4C187.5,98.4,189,98.2,190,98.6z M175.3,107.5c0.8,0.1,1.9,0.3,3,0.3
		c1.101,0,2.2-0.3,3.3-0.5c0.7,0.7,1.2,1.7,2.101,2.2c1.2,0.7,2.6,1.3,4,1.4c2.1,0.3,4.2,0.1,6.399,0.1c0.101,0.3,0.301,0.7,0.7,1.4
		c-7-0.1-13.7-0.3-20.2-0.4C174.8,110.5,175.1,109.1,175.3,107.5z M189.5,109.7c-1.4-0.3-3-0.5-4.5-1.2c-1.2-0.5-2.2-1.5-2.1-3
		c0-0.4,0.3-1.1,0.699-1.3c3.2-1.8,6.801-2.1,10.4-1.5c1.8,0.3,3.4,3.5,2.3,5.3c-0.2,0.3-0.6,0.6-1,0.7
		C193.5,109.1,191.6,109.4,189.5,109.7z M197.6,108.9c1.4,1.4,3.2,2,5.2,1.6c-0.899,1.5-2.2,1.9-3.6,1.7c-1.4-0.3-2.8-0.9-4.4-1.4
		C196,110,196.7,109.5,197.6,108.9z M199.2,108.5c-0.9-0.5-0.9-1.3-1.101-2.2c-0.5-2.5,0-2.2-3.3-4.8c0.5-1.3,1.9-2.1,3-1.6
		c1.3,0.6,2.5,0.1,3.8-0.1c0.301-0.1,0.9,0,1.2,0.2c1.9,1.2,2.8,3,3.3,5.1c0.2,0.6,0,1.5-0.399,2
		C204.4,109.1,201.3,109.7,199.2,108.5z M207.5,107.6c0.1-0.1,0.8,0.1,1,0.3c0.3,0.3,0.8,1,0.7,1.2c-0.5,0.7-0.7,1.7-1.8,1.9
		c-0.9,0.2-1.9,0.4-2.801,0.6C204.2,109.1,206.6,109,207.5,107.6z M190.8,92c0.2-0.1,0.601-0.1,0.8-0.1c2.301,0.5,4.7,0.8,7.101,1.4
		c1.1,0.3,2.3,0.9,3.3,1.5c1.5,0.9,1.5,2.5-0.2,3.2c-1.2,0.5-2.7,0.7-4.1,0.7c-2.5-0.1-5.101-0.5-7.4-1.8
		c-0.7-0.4-1.3-0.9-1.899-1.3c0.1-0.1,0.199-0.1,0.3-0.2c-0.101-0.6-0.101-1.2-0.101-1.8C189.3,93.1,190,92.5,190.8,92z M175.7,86.8
		c4.3-0.5,8.399,0.7,12.399,2.2c0.4,0.1,0.9,0.4,1.2,0.7c0.601,0.6,0.601,1.1-0.2,1.7c-1.5,1.2-3,1.5-4.399,1.4
		c-3.7,0-6.8-0.8-9.9-2c-1-0.4-1.5-1.2-1.399-2.3C173.5,87.4,174.5,86.9,175.7,86.8z M163,92.6c2.2-1.1,4.5-1.9,6.8-2.7
		c0.601-0.2,1.4-0.2,1.8-0.3c1.4,1,2.7,1.9,4.301,3.1c-1.301,0.7-2.301,1.6-3.5,2c-1.9,0.6-4,1.2-6,1.4c-1.101,0.1-2.4-0.3-3.4-0.8
		C161.7,94.7,161.6,93.3,163,92.6z M160.7,92.6c-0.5,2-0.101,3.1,2.3,4.5c-1.9,1-7.7-0.3-8.8-2C156.1,93.5,158.4,93.1,160.7,92.6z
		 M149.9,95.1c0.899,0.1,1.699,0.1,2.399,0.2c0.2,0,0.4,0.2,0.5,0.3c0.601,0.7,1.2,1.4,1.7,2c-1.1,0.6-2.5,1.4-3.9,2.2
		c-1,0.6-1,0.7-2.3,0.5C149.6,98.9,150.9,97.4,149.9,95.1z M143.2,95.5c0.399-0.9,1.2-1.4,2.2-1c1.1,0.4,2.1,1,3.1,1.6
		c0.1,0.1,0,0.9-0.2,1.2c-1.1,1.9-2.899,3-4.899,3.6c-1.7,0.6-3.601,0.9-5.4,1.2c-0.4,0.1-1.2-0.4-1.3-0.7c-0.2-0.5,0-1.3,0.3-1.7
		c0.9-1.1,1-1.1,0.5-2.4c1.9,0.3,3.5-0.2,5-1.2C142.7,95.9,143.1,95.8,143.2,95.5z M128.8,92c1.7-1.2,3.601-1.2,5.601-1.2h1.199
		v-0.1c1.5,0.2,3,0.3,4.4,0.7c0.8,0.2,1.6,0.7,2.3,1.2c0.8,0.6,0.3,1.4-0.1,1.8c-1.5,1.7-3.5,1.9-5.7,1.8c-2.3-0.1-4.3-1.2-6.4-2
		c-0.6-0.2-1.1-0.7-1.6-1.2C128.4,92.8,128.6,92.2,128.8,92z M118.5,95.7c2.5-0.4,4.9-0.7,7.4-1.2c1.399-0.3,2.8-0.2,4.1,0.5
		c0.4,0.2,0.8,0.3,1,0.6c0.7,1.3,1.9,1.5,3.1,1.7c0.2,0,0.4,0,0.5,0.1c0.601,0.4,1.2,0.8,1.801,1.2c-0.5,0.4-1,1.1-1.601,1.2
		c-2.8,0.6-5.6,1.1-8.2,1.6c-2.399-0.4-4.5-0.7-6.7-1.3c-1.3-0.3-2.3-1.2-2.5-2.7C117.3,96.5,117.5,95.9,118.5,95.7z M116,98.1
		c1.5,3.7,4.7,4.6,8.2,5.1c3.7,0.5,7.2,0.1,10.7-1.3c0.199-0.1,0.8,0.2,0.899,0.4c0.2,0.8,0.101,1.6-0.8,2c-6,3-11.9,2.9-17.8-0.3
		c-0.5-0.2-1.1-0.8-1.1-1.3C115.9,101.2,116,99.6,116,98.1z M115.7,104.9c5.5,3.3,10.5,4.5,16.399,2.7c0.301,0.9-0.3,2.4-1.3,2.7
		c-0.8,0.3-1.7,0.6-2.5,0.5c-2.2-0.2-4.5-0.3-6.7-0.8c-2-0.4-3.8-1.4-5.7-2.2c-0.3-0.1-0.5-0.5-0.5-0.8
		C115.4,106.3,115.6,105.6,115.7,104.9z M115.9,109.7c1.2,0.3,2.4,0.4,3.5,0.9c3,1.3,6.1,2.2,9.4,2.6c3.2,0.4,6.4,1.2,9.5,0.9
		c2.5-0.2,5.101-0.2,7.601-0.1c3.6,0.2,7.199,0.6,10.8,0.7c2.899,0.1,5.7-0.1,8.6-0.1c2.5,0,4.9,0.2,7.4,0.3c1,0.1,2,0,3,0
		c1.7,0,3.399-0.1,5.1,0.2c2.4,0.4,4.7,0.3,7.101,0c3-0.4,6.1-0.2,9.1-0.4c3-0.3,6.1-0.7,9.1-1.1c1.801-0.3,3.301-1.1,4.9-2
		c1.8-1.1,3.8-1.8,5.6-2.7c1.4-0.7,2.2-1.9,2.601-3.5c0.399-1.8-0.4-3.1-2.2-3.4c-0.7-0.1-1.5-0.3-2.2-0.4c-0.2,0-0.399-0.2-0.5-0.3
		c-0.5-0.7-1-1.3-1.6-2.1c1.399,0.2,2.7,0.2,3.899,0.6c3.2,1,6.7,1.2,9.601,3.1c2.2,1.4,2.2,3.1,1.1,4.8c-1.1,1.6-2.899,2.2-4.3,3.3
		c-2.6,2-5.6,2.7-8.6,3.6c-3.4,1-6.9,1.7-10.4,2.4c-2.2,0.4-4.5,1-6.7,1.2c-4.5,0.5-9.1,0.7-13.6,1.2c-4.2,0.4-8.3,1-12.5,1.4
		c-2,0.2-4,0.3-6,0.2c-3.601-0.1-7.101-0.2-10.601-0.5c-5-0.4-9.899-0.9-14.899-1.3c-5.7-0.4-11.4-1.4-16.9-3
		c-2.7-0.8-5.4-1.5-8.2-2.3C114.9,112.3,115.2,111,115.9,109.7z M88,65.3c-0.1,0.4-0.5,0.7-0.8,1.1c-0.2-0.1-0.3-0.1-0.4-0.2
		c-0.2-3.6-0.4-7.2-0.6-10.8c0.1-0.1,0.3-0.1,0.5-0.2c0.3,0.3,0.6,0.6,0.9,1C88.4,59.2,88.6,62.3,88,65.3z M38.6,31.6
		c-1.1-1.6-2.4-3-3.7-4.7c0.6-0.4,1.1-0.8,1.6-1.2c2.9-2.5,6.2-4.6,9.6-6.4c4.4-2.3,9.1-3.9,14.1-4.4c4.6-0.5,9.3-0.9,13.9,0.4
		c2.7,0.7,5.4,1.4,8,2.2c1.1,0.4,2.2,1.1,3.2,1.8c0.2,0.1,0.4,0.7,0.3,1c-1.6,3.9-2.4,8-2.4,12.3v0.7c-11.5-5.3-31.8-3.9-41.5,3.3
		C40.7,35,39.7,33.2,38.6,31.6z M83.6,38.3c-14.1-2.5-27.7-0.3-41.1,3.8c-0.1-0.9-0.2-1.8-0.3-2.7c-0.2-1,0.2-1.6,1-2.1
		c4.8-2.9,9.9-4.7,15.5-5.4c3.1-0.4,6.3-0.8,9.4-0.8c4.8,0,9.4,1.1,13.8,3.2C83.6,35,83.4,36.6,83.6,38.3z M36.5,56
		c-2.1,0.2-5.5-1.3-6.6-3.2c-0.2-0.5-0.2-1.3,0.1-1.8c0.7-1.4,2-2.2,3.4-2.9c6.8-3.5,13.9-6.2,21.4-7.6c5-0.9,10-1.6,15.1-1.6
		c2.5,0,5,0.7,7.5,0.7c4.4-0.1,8.6,1.1,12.8,1.9c2.3,0.5,4.1,2.3,5.1,4.6c0.2,0.6,0.1,1.1-0.6,1.5C94,48,93.6,48.9,93,49.5
		c-1.5,1.7-3.4,2.8-5.6,3.3c-0.3,0-0.5,0.2-0.8,0.3c-0.3-1-0.7-1.8,0.3-2.7c0.8-0.7,0.5-2.1-0.5-2.8c-1.8-1.4-3.9-2-6-2.2
		c-4.9-0.6-9.8-0.4-14.7,0c-3.8,0.4-7.7,0.6-11.5,1.1c-2.5,0.3-5,1-7.4,1.7c-2.7,0.8-5.3,1.6-7.9,2.6c-0.5,0.2-1,1-1.3,1.6
		C37.2,53.5,36.9,54.7,36.5,56z M84.1,59.4c0.1,3.4,0.5,6.9-1,10.2c-1.9,4.3-4.8,7.8-8.9,10c-2,1.1-4.5,0.9-6.7,0.6
		c-2.8-0.4-5.6-0.9-8.2-1.7C57.7,78,56.2,77,54.7,76c-1.6-1.1-3.3-2.1-4.6-3.5c-1.7-1.8-3-4-3.6-6.5c-0.4-2-1.1-3.9-1.2-5.9
		c-0.1-2.4,0.3-4.9,0.6-7.3c0.1-0.8,0.5-1.6,0.6-2.4c0.2-0.9,0.7-1.2,1.5-1.3c2.1-0.4,4.1-0.8,6.2-1.2c0.9-0.1,1.7-0.2,2.6-0.3
		c0,0.1,0.1,0.2,0.1,0.3c-0.7,0.8-1.3,1.5-2,2.4c-0.2,0.2-0.1,0.6-0.1,1c0.3-0.1,0.7-0.1,0.9-0.3c1.1-1,2.2-2.1,4-2
		c0.8,0,0.8-0.7,0.4-1.5c0.6,0,1.2,0,1.8-0.1c3.3-0.6,6.6-0.8,10-0.6c0.8,0.1,1.7-0.1,2.7-0.2c-0.3,0.7-0.4,1-0.6,1.4
		c0.1,0.1,0.2,0.2,0.2,0.2c1.6-0.2,2.7,0.6,3.8,1.7c0.3,0.3,0.9,0.3,1.3,0.4c0-0.5,0.2-1,0-1.4c-0.4-0.8-1.1-1.5-1.6-2.2
		c0.8,0.1,2,0.3,3.2,0.5c0.7,0.1,1.3,0.6,2,0.7c1.8,0.4,2.4,1.2,1.7,3C83.6,53.7,84,56.5,84.1,59.4z M40.8,72
		c-3.532-1.146-5.87-5.75-4.771-9.037C36.02,63.009,36,63.054,36,63.1c0.1,0.3,0.3,0.5,0.5,0.8c0.3-0.2,0.6-0.4,0.8-0.6
		c0.1-0.2-0.1-0.5,0-0.7c0.2-0.4,0.4-0.9,0.8-1.1c0.2-0.1,0.7,0.3,1,0.6c0.5,0.6,0.9,1.2,1.2,1.8c0.3,0.6,0.4,1.3,0.6,2
		c-0.7,0.5-1.9,0.8-1.3,2c0.2,0.5,0.8,0.7,1.2,1.1c0-0.2,0.1-0.3,0.2-0.4c-0.1-0.4-0.3-0.9-0.6-1.7c0.1,0,0.2-0.1,0.3-0.1
		c0.4,0.2,0.7,0.4,1.1,0.6c0.2,0,0.3-0.1,0.4-0.1c-0.2-0.9-0.5-1.9-0.8-2.9c-0.5-1.3-0.8-2.7-2-3.6c-1.3-1-1.8-1-2.9,0.2
		c0-0.1-0.1-0.1-0.2-0.2c0.6-0.6,1.1-1.3,1.8-1.7c0.8-0.4,1.5,0.2,2,0.9c0.7,1.1,1.5,2.2,1.9,3.4c0.7,2.1,1.2,4.3,1.5,6.5
		C43.8,71.8,42.8,72.6,40.8,72z M43.3,78.3c0.2-1.6,0.1-3.2,0.7-4.4c1.3-2.3,1-4.5,0.5-6.8c-0.4-1.8-1-3.7-1.7-5.4
		c-0.8-1.8-2-3.3-4-4.1c0.2-1.6,0.2-3.3,0.7-4.8c0.2-0.6,1.2-1.2,2-1.6c1.1-0.5,2.3-0.8,3.5-1.2c0.2-0.1,0.4,0,0.8-0.1
		c-1.4,2.5-1.8,5-1.9,7.6c-0.2,3.3,0.4,6.5,1.3,9.6c0.4,1.6,1.6,2.9,2.5,4.3c0.6,0.7,1.3,1.5,2,2.1c2.5,2.2,5.2,4.1,8.1,5.6
		c1,0.5,2,0.9,3.1,1.1c3,0.6,6,1.4,9.1,1.5c2.4,0.1,5.1,0,7.1-1.6c1.5-1.2,3.1-2.7,4.1-4.4c1.8-2.9,3.2-6,4.7-8.9
		c0,0.6-0.1,1.5,0.2,2.6c0,0.6,0.4,1.1,0.5,1.7c0.6,3,1.2,6,0.8,9.5c-0.4-0.7-0.7-1.1-1-1.8c-0.2,0.7-0.5,1.3-0.7,1.9
		c-0.1,0.3-0.1,0.6-0.2,0.9c-0.2,0.5-0.5,0.9-0.7,1.3l-1.2-1.2c-0.1-0.1-0.2-0.3-0.5-0.6c-0.2,2.1,0.4,4.1-1.1,5.6
		c-0.8-0.6-1.6-1.1-2.2-1.6c0,1,0.2,2,0,2.9c-0.2,0.8-0.8,1.7-1.2,2.5c-0.2-0.1-0.3-0.1-0.5-0.2c0-1.5-0.1-3,0-4.5
		c0.1-2.1-0.9-3.3-3.1-3.4c-3.2-0.2-6.1,0.9-9,2c-1.4,0.5-2.7,1.3-4.1,1.7c-0.7,0.2-1.5-0.1-2.2-0.1c-1.3-0.1-2.5,0.1-3.7-0.2
		c-2.3-0.6-4.5-1.5-6.7-2.2c-0.9-0.3-1.9-0.7-2.9-1c-0.8-0.3-1.2-0.7-1.1-1.5c0.1-1.4,0.2-2.7,0-4.3C44.7,77.3,44.1,77.7,43.3,78.3z
		 M62.5,147c6.1,2.199,12.4,1.5,18.9,1.199c-3,1.7-5.9,3.4-8.8,5.1c-0.7,0.4-1.2,0.301-1.9-0.199c-1.6-1.1-3.3-2-5-2.9
		c-2.4-1.3-4.8-2.6-7.2-3.9c-0.8-0.399-0.7-1-0.7-1.699c0.1-2.2,0.2-4.5,0.2-6.7c0-5.7,0-11.3,0.1-17c0.1-4.8,0.3-9.6,0.5-14.4
		c0.1-2.9,0.5-5.8,0.8-8.9c1.2,0.4,2.4,0.8,3.8,1.4C61.5,115,62.2,131.1,62.5,147z M56,145.7c-3.1,1.5-6.2,3-9.2,4.4
		c-0.8,0.4-1.4,0.199-2-0.2c-3-2.101-6.1-4.2-9.2-6.3c-1-0.6-1.4-1.4-1-2.5c1.2,0.699,2.4,1.4,3.5,2.199c2.2,1.5,4.4,3.101,6.6,4.5
		c0.5,0.301,1.2,0.4,1.7,0.201c0.3-0.201,0.7-0.9,0.7-1.4c0.3-3.9,0.2-7.9,0.6-11.801c0.4-4.399,1.4-8.699,1.7-13
		c0.4-4.9,1.6-9.6,2.9-14.4c0.7-2.6,1.4-5.1,2.1-7.7c0.1-0.4,0.5-0.7,0.9-1c0.5-0.3,1-0.5,1.5-0.7c0.5-0.1,1-0.3,1.4-0.1
		c0.2,0.1,0.3,0.9,0.2,1.3c-0.1,1.5-0.5,3.1-0.6,4.6c-0.3,3.7-0.5,7.3-0.7,11c-0.2,5.1-0.3,10.1-0.5,15.201
		c-0.2,4.699-0.5,9.299-0.7,14C55.9,144.6,56,145.2,56,145.7z M54.6,91.3c-0.1-2.2,1.5-3.8,3.8-3.8c2.4-0.1,3.9,1.4,3.9,4.2
		c0,2.5-0.7,3.5-2.9,3.6C56.4,95.5,54.7,94,54.6,91.3z M62.5,96.7c-0.3-0.1-0.5-0.2-0.7-0.3c2.3-2.4,2.4-4.8,0.4-8.7
		c1.4-0.5,2.8-1.2,4.2-1.6c2.5-0.7,4.9-1.3,7.4-1.9c1.7-0.4,2.8,0.4,2.6,2.1c-0.3,3.5-0.7,7.1-1.5,10.6c-0.6,2.4-1.6,2.9-4.1,2.2
		C68,98.3,65.2,97.5,62.5,96.7z M41,89.9c0.3-1.7,0.9-3.3,1.5-4.9c0.3-0.8,1.1-1.2,2-0.9c2.7,0.9,5.4,1.8,8.1,2.7
		c0.7,0.2,1.4,0.5,2.1,0.8c-2.4,2.5-1.5,7.1,0.6,8.8c-1.8,1-3.7,2.1-5.7,2.9c-1.4,0.6-3,0.9-4.6,1c-1.2,0.1-2.8-1.6-3.1-2.9
		C41.3,94.9,40.5,92.5,41,89.9z M7.3,117.8c-1.7-3.4-3-6.5-2.5-10c0.2-1,0.9-2.1,1.7-2.8c4.3-3.7,9-6.8,14.2-9
		c2.9-1.3,5.6-2.9,8.5-4.3c3.4-1.6,6.8-3,10.1-4.5c0,1.8-0.1,3.2-0.2,4.7c0.2,2,0.3,4,0.6,6c0.3,2.2,2,3.1,3.8,3.9
		c2,1,3.8-0.1,5.7-0.6c1.4-0.3,2.7-0.9,4.2-1.5c-2.8,7.5-5.1,14.9-6.1,22.6c-1,7.701-1.7,15.4-2.6,23.3c-0.8-0.4-1.6-0.9-2.5-1.4
		l-7.8-4.5c-0.4-0.199-0.7-0.8-0.7-1.199c-0.1-1,0-1.9,0-2.9c0-1.301-0.1-2.5,1.2-3.5c0.9-0.6,1.4-1.7,2.4-2.301
		c0.6-0.299,1-1.299,1.1-2c0.1-0.899,0.6-1.5,1.1-2.199c0.7-0.9,0.9-2.2,1.4-3.3c0.1-0.3,0.2-0.5,0.4-0.7c1.7-1.8,1.7-3.8-0.2-5.5
		c-0.7-0.6-1.4-1.2-2.2-1.7c-0.5-0.4-1.1-0.7-1.7-1c0.083-0.166,0.225-0.331,0.331-0.497c0.006-0.025,0.007-0.054,0.017-0.077
		L37,113.1c2-2.1,1.6-4.9,1.8-7.4c0.2-2.6,0.1-5.1-0.8-7.6c-0.2,2.5,0.1,5-1.2,7.3c-0.3-0.2-0.7-0.4-1-0.6c-1-0.5-2.1-0.4-2.8,0.5
		c-1.2,1.3-2.2,2.7-3.4,4c-0.4,0.3-0.9,0.6-1.4,0.8c-0.9,0.4-1.5,0.1-2.3-0.5c-1.5-1.2-3-2.2-4.1-3.8c-1.5-2-3.7-2.7-5.7-2.2
		c1.9,1.2,3.7,2.3,5.5,3.4c-4.7,0.7-8.6,2.4-11.9,5.5c-0.9,0.8-1.3,2.2-1.9,3.3C7.6,116.3,7.5,116.9,7.3,117.8z M17.6,127.1
		c-1.5,0.3-2.8,0-4-1.1c-1.4-1.301-2.9-2.5-4.3-3.701c-0.3-0.2-0.4-0.6-0.4-1v-1.9c-0.3-4.1,1.8-6.8,5.3-8.4
		c1.7-0.8,3.4-1.6,5.1-2.1c1.8-0.6,3.5-0.4,4.9,1.2c0.6,0.7,1.3,1.3,1.9,1.9c0.5,0.5,0.4,0.8-0.3,1.1c-4,1.7-7.5,3.9-9.4,8.1
		c-0.5,1-0.6,2.2-0.8,3.3c-0.1,1,0.8,1.6,1.9,1.699c0.3,0,0.5,0.301,0.8,0.5C18.1,126.799,17.9,127,17.6,127.1z M32.6,131.9
		c-1.8,0.399-3.6,0.899-5.3-0.5c-2.2-1.8-4.6-3.2-6.9-4.899c-1-0.701-2-1.5-2.9-2.4c-0.3-0.2-0.4-0.9-0.3-1.3c0.6-2.5,2-4.5,4.1-5.9
		c1.8-1.2,3.8-2.3,5.7-3.3c0.6-0.4,1.3-0.4,1.8-0.5c0.2-0.4,0.2-0.7,0.4-0.9c1.9-1.6,3.6-3.3,4.6-5.6c0.1-0.3,0.5-0.6,0.8-0.9
		c2,1.2,2.4,2.7,1.7,4.8c-0.5,1.4-1.2,2.5-2.3,3.3c-0.9,0.7-0.7,2.2-0.2,3.2c0.7,1.3,1.5,1.4,2.8,1
		c0.291-0.097,0.626-0.121,0.962-0.135c0.121-0.218,0.18-0.464,0.166-0.719c-0.028-0.083-0.051-0.169-0.085-0.248
		c-0.208-0.124-0.261-0.324-0.217-0.506c-0.174-0.484-0.338-0.842-0.426-1.192c0.118,0,0.244,0.031,0.369,0.059
		c0.134-0.107,0.315-0.154,0.495-0.092c0.047,0.002,0.09-0.007,0.144,0.014c1.087,0.431,2.686,2.143,2.729,3.59
		c0.077,0.143,0.14,0.287,0.164,0.43c0,0.6-0.7,1.3-1.3,1.6c-0.22,0.125-0.452,0.206-0.688,0.271
		c-0.727,0.505-1.575,0.817-2.453,1.066c0.88,0.088,1.76,0.176,2.641,0.264c-0.263,1.313-0.781,2.122-1.555,2.646
		c-0.975,0.723-2.574,1.187-3.745,1.372c-0.354,0.056-0.706,0.102-1.059,0.138c1.471,0.783,3.023,0.572,4.659,0.845
		c-0.216,0.54-0.51,0.938-0.896,1.224c-0.01,0.016-0.012,0.033-0.025,0.049c-0.768,0.971-1.976,1.471-3.291,1.784
		c0.321,0.042,0.654,0.089,1.012,0.144C33.6,131.1,33.2,131.799,32.6,131.9z M40.3,203.2c-0.1,0.1-0.2,0.1-0.3,0.1
		c-1.4-3.199-2.8-6.299-4.1-9.5l0.3-0.299c1.8,1,3.5,2,5.2,3C41,198.799,40.7,201,40.3,203.2z M35.8,191.1
		c-2.9-1.6-5.6-3.7-8.2-5.801c-2-1.699-3-4.1-3.2-6.899c-0.2-3.8,0.8-7.3,1.6-10.899c0.5-2,0.9-4.101,1.6-6
		c1.2-3.201,2.7-6.301,4-9.4c0.8-1.9,1.5-3.9,2.3-5.801C34,145.9,34.2,145.5,34.4,145c3,2.199,5.8,4.399,8.6,6.5
		c0.1,0.1,0.3,0.1,0.3,0.199c0.7,1.9,2,0.9,2.9,0.5c3.5-1.4,7-3,10.5-4.5c0.4-0.199,0.9-0.199,1.2,0c3.2,2,6.4,4,9.7,6
		c1.3,0.7,2.6,1.301,3.9,1.9c0.3,0.1,0.7,0.1,1,0c3.6-1.7,7.2-3.1,10.3-5.6c0.3-0.201,0.6-0.301,1.2-0.601c-0.6,2.5-1,4.8-1.6,7.101
		C80.3,164.2,78.1,172,76,179.7c-0.6,2.1-1.1,4.4-1.7,6.801c-3.6-1.301-7.7-1.701-11.5-3.4c-1.7-1.1-3.7-1.7-5.6-2.6
		c-0.9-0.5-1.3-1.101-0.9-2.201c1.1-2.899,0.9-5.899,0.8-8.899c-0.1-2.2-0.5-4.3-0.9-6.5c-0.2-1.2-1.4-1.5-2.3-0.5
		c-0.8,1-1.3,2.2-1.9,3.399c-1,2-1.8,4-2.7,6c-0.2,0.4-0.5,0.9-0.5,1.4c0.1,1-0.5,1.301-1.3,1.5c-3.1,0.7-6.2,0.7-9.3,0.5
		c-0.2,0-0.5-0.1-0.8-0.199c1.1-1.601,2.9-0.9,4.5-1.301c-0.3-0.3-0.4-0.5-0.6-0.5c-1.9-0.4-3.7,0.4-5.5,1.1
		c-0.3,0.101-0.5,0.601-0.7,0.9c0.4,0.2,0.7,0.5,1,0.6c3.7,0.701,7.4,0.801,11-0.199c0.9-0.301,1.5-0.2,2.1,0.6
		c2,2.801,4.7,4.7,7.8,6.1c3.2,1.5,6.3,3,9.5,4.4c1.1,0.5,2.4,0.7,3.9,1.1c-3.2,5.9-3.3,12.101-3.3,18.301
		c-4.5-1.2-8.6-3.301-12.8-5.4C48.1,197.5,41.9,194.4,35.8,191.1z M54.2,177.4c-0.9-0.601-1.6-1.3-2.3-1.899
		c-0.8-0.601-0.9-1.201-0.5-2.101c0.8-1.8,1.6-3.601,2.4-5.399c0.4-0.9,0.8-1.9,1.2-2.9C55.6,166.6,55.2,173.4,54.2,177.4z
		 M44,213.1c-0.1-0.2,0.2-0.801,0.3-1.2c0.1-0.2,0.3-0.399,0.4-0.601c0,0.101,0.1,0.201,0.1,0.301c0.5-0.2,1.2-0.2,1.3-0.4
		c0.3-0.4,0.1-1.1,0.1-1.9C48.8,209,50.1,211.4,52,212.4c-0.2,0.899-0.4,1.7-0.6,2.8c-1.7,0.5-3.7,1.5-6.2,0.5
		c0.7-0.4,1.1-0.5,1.4-0.8c0.3-0.2,0.5-0.601,0.4-0.8c0-0.301-0.4-0.5-0.7-0.6c-0.4-0.101-0.8,0.1-1.1,0
		C44.8,213.5,44.3,213.4,44,213.1z M50.7,209.6v-0.301h5.9c0.1,0.101,0.1,0.201,0.1,0.301c-0.8,0.6-1.6,1.199-2.5,1.8
		c-0.2,0.101-0.7,0-0.9-0.101C52.4,210.799,51.6,210.2,50.7,209.6z M64.3,215.9c-0.5,1.3-1,2.5-1.5,3.8c-0.9,2.1-2.3,3.7-4.5,4.5
		c-2.4,0.9-4.7,2.1-7.4,1.801c-2.3-0.301-4.4-1-6.1-2.701c-0.5-0.5-1-1-1.8-1.799c2.1-0.201,3.4-2.101,5.5-1.101
		c-1.5,0-1.5,0.8-1.1,1.8c0.4,0.9,0.7,1.9,1.1,2.9c0.1,0,0.3-0.1,0.5-0.1c-0.1-1.4-0.2-2.9-0.3-4.101c2.9,0.5,5.5,0.899,8,1.399
		c0.7,0.101,1.3-0.399,2-0.699c-0.5-0.301-1.1-0.801-1.7-0.801c-2.6,0-5-0.6-7.3-1.699c-1.3-0.6-2.6-0.7-3.9,0
		c-0.9,0.5-2,0.9-3.1,1.4c0.2-0.201,0.3-0.4,0.5-0.601c0.7-0.601,1.4-1.399,2.2-1.899c0.6-0.301,1.5-0.301,2.3-0.4
		c1.8-0.301,3.7-0.1,5.1-1.5c0.2-0.2,0.5-0.2,0.7-0.2c2-0.3,2.4-1.399,1.5-3.2c0,0,0-0.1,0-0.3c1.6-1.399,3.6-2.2,5.7-2.601
		c0.1,0.101,0.1,0.201,0.2,0.301c-0.7,0.6-1.3,1.3-2,1.9c0.1,0.1,0.1,0.299,0.2,0.399c0.5-0.101,0.9-0.2,1.4-0.2s1.3,0,1.4,0.301
		c0.5,0.799-0.4,0.899-0.9,1.1c-0.7,0.199-1.5,0.3-2.2,0.5v0.3c0.2,0,0.5,0.101,0.7,0.2c0.3,0.199,0.9,0.4,1,0.699
		c0.1,0.701-0.5,0.9-1.1,0.9c-1,0-2-0.199-3-0.3c-0.3,0-0.7-0.101-1-0.2c-0.1,0.2-0.1,0.301-0.2,0.5c0.8,0.4,1.6,1,2.4,1.2
		c0.8,0.2,1.7,0.101,2.6,0c1.5-0.2,2.2-1.601,2-2.399c0.5-1.101,0.9-1.9,1.2-2.701C65.1,213.7,65.1,213.7,64.3,215.9z M66.7,213.799
		c-0.6-0.6-1-1.199-1.3-1.5c-0.7-0.6-1.4-1-2-1.5c-0.2-0.299-0.7-0.5-0.7-0.699c-0.2-1.5-1.3-1.6-2.3-1.5c-0.8,0.1-1.3-0.2-1.9-0.4
		c-1.4-0.5-2.8-0.699-4.2-0.699c-1.8,0.1-3.5,0.5-5.2,0.799h-0.5c0.3-2.5,0.7-4.899,1.1-7.399c6.1,2.5,12.1,5.8,19.3,6.399
		C68.2,209.5,67.5,211.6,66.7,213.799z M70.9,201.9c-1.3,0-1.5-0.5-1.5-1.601c0-3.199,0.3-6.399,1.2-9.6
		c0.1-0.199,0.1-0.5,0.2-0.699c0.7-1.801,0.8-1.9,2.7-1.601c1,0.101,2.5,0,2.9,0.601c0.7,1,1.1,2.5,1.1,3.799
		c0,3.801-1.2,7.201-4.1,10C72.7,201.6,71.6,202,70.9,201.9z M74.7,213.9c-0.7-0.899,0.4-1.3,0.8-1.7c0.2-0.3,1,0.1,1.6,0.2
		C76.1,213,75.4,213.4,74.7,213.9z M75.3,209.1c-0.1,0.5-0.1,1-0.3,1.4c-0.2,0.299-0.6,0.799-0.9,0.899
		c-0.4,0.101-0.8-0.3-1.3-0.601c0.9-0.399,1.7-0.6,1.7-1c0.1-0.899-0.9-0.6-1.4-0.799c-0.8-0.201-0.9-0.801-0.7-1.4
		c0.1-0.6,0.3-1.1,1.1-0.801c0.5,0.101,1.2,0,1.9,0c0-0.199,0.1-0.5,0-0.699c-0.8-1.4,0.5-2.1,1-3c0.1-0.1,0.8-0.1,1,0.1
		c0.9,0.801,1.1,1.9,1,3.1v2C78.8,208.1,79,208,79.2,207.9c0.6-0.601,1.2-0.8,1.8-0.101c0.5,0.701,0.9,1.601,0.2,2.4
		c-0.6,0.7-1.5,0.801-2.3,0.5c-0.2,0-0.2-0.5-0.3-0.699c-0.3-0.601-0.5-1.301-1-1.801C76.8,207.4,75.5,208,75.3,209.1z
		 M79.4,213.799c-0.6-0.5-1.1-1.1-1.7-1.699c1-0.801,2.5-0.9,3,0c0.3,0.4,0.1,1.199-0.1,1.699C80.5,213.9,79.7,214,79.4,213.799z
		 M88.6,189.2c1.1,2.301,1.2,4.7,1.1,7.2c0,1.101-0.1,2.3-0.2,3.399c-0.1,0.4-0.3,0.801-0.6,1.101c-0.6,0.5-1.3,0.899-2,1.399
		c-0.7,0.5-0.9,1.301-0.3,2C86.8,204.6,87,204.9,87.3,205c1.8,0.899,1.9,2.6,1.8,4.299c-0.1,3.801-0.4,7.701-0.6,11.5
		c-0.1,0.4-0.2,0.9-0.2,1.301c0.1,1.8-0.9,2.199-2.1,2.5c-2.7,0.6-5.3,1-7.9,1.5c-0.1,0.1-0.3,0-0.7,0c0.6-0.4,0.9-0.801,1.3-1
		c1.8-0.9,2.2-2.5,2.1-4.301c-0.2-1.699-0.4-3.399-0.6-5.199c2.5-1.6,2.7-2.2,1.6-4.1c1-1.101,1.3-2.301,0.5-3.701
		c-0.6-1.1-1.6-1.199-2.6-1.299c-0.2-4.201-1.6-5.601-4.4-4.101c1.4-2,2.5-4,2.9-6.399c0.4-2.4,0.2-4.801-0.8-7.201
		C81.3,188.9,84.9,189.1,88.6,189.2z M88.8,138.4c-0.4,4.3-0.8,8.601-1.4,12.8c-1,6.5-2.1,12.9-3.3,19.4c-0.8,4.4-2,8.699-3,13
		c-0.2,0.4-0.4,0.9-0.6,1.3c-0.1,0.399-0.2,0.7-0.4,1.399c-1.1,0.101-2.4,0.201-4,0.4c0.6-2.6,1.1-4.9,1.7-7.199
		c1.3-4.9,2.6-9.9,4-14.801c0.6-2.1,1.4-4.199,1.9-6.4c0.7-3.199,1.2-6.5,1.8-9.799c0.1-0.801,0.4-1.5,0.5-2.301
		c0.1-0.3-0.2-0.699-0.4-0.9c-0.1-0.1-0.5,0-0.8,0c-3.2,0.301-6.5,0.5-9.7,1C71.6,146.9,68.3,146,64.8,145.5
		c-0.2-2.701-0.6-5.4-0.7-8c-0.2-6-0.3-12.101-0.3-18.101c0-4.5,0.1-9.1,0.2-13.7c0.1-2,0.3-4.1,0.4-6.1c2.8,1.2,5.6,1.8,8.7,1.3
		c1.8-0.3,2.8-1.2,3.2-3.1c0.4-1.8,0.8-3.6,1.3-5.4c0.1-0.2,0.4-0.5,0.6-0.6c1.2-0.6,2.1-1.3,2.5-2.6c0.1-0.4,0.7-0.9,1.1-1
		c1-0.3,1.6-0.8,2-1.7c0.1-0.4,0.3-0.6,0.6-1.2c-0.2,1.6-0.3,2.8-0.4,4c0,1.2-0.1,2.4,0.9,3.3c0.2-2.8,0.3-5.5,0.4-8.3
		c1.6,0.2,3.1,0.4,4.6,0.6c3.6,0.6,7.3,1.1,10.9,1.8c2.9,0.6,5.9,1.2,8.8,2.1c1.5,0.5,3.4,0.9,4.2,2.6c0.3,0.8,0.7,1.6,0.7,2.4
		c0,3.3-0.1,6.6-0.3,10c-4.9-6.7-11.2-7.6-18.6-4.4c1.1-1.1,1.9-2.2,2.9-3c0.9-0.8,2.1-1.4,3.2-2.1c-0.1-0.1-0.1-0.2-0.2-0.3
		c-3.8,1.2-7.3,2.8-8.8,7c-0.1,0.1-0.2,0.2-0.2,0.4c-0.3,1.7-0.3,1.5-2.1,1.6c-2.5,0.2-3.5-1-3.9-3.2c-0.1-0.7-0.4-1.4-0.6-2.1
		c-0.1,0.1-0.2,0.1-0.3,0.1c0.1,0.7,0.1,1.5,0.2,2.2c0.4,2.6,0.8,5.1,1.1,7.7c0.3,1.6,0.2,3.3,0.7,4.8c0.5,1.6-0.2,2.7-0.7,4
		c-0.8,2.1-1.4,4.4-1.9,6.7c-0.4,2.2,1.2,3.3,3.9,2.4c0.1,1.4,0.3,2.699,0.3,4C89.2,132.5,89.1,135.5,88.8,138.4z M111.6,111.5
		c-1.1-2-3.1-3.1-5-4.1c-3.9-2.1-8-1.6-12.1-0.7c-0.5,0.1-1,0.2-1.5,0.3c0.1-3,1.5-5.1,4.2-6.4c3.9-1.9,7.8-1.8,11.4,0.5
		c2.4,1.5,3.9,3.8,4.7,6.7c0.7,2.8-0.9,4.8-1.7,7.1c0,0.2-0.4,0.3-0.6,0.5c-0.1-0.1-0.1-0.1-0.2-0.2c0.3-0.7,0.7-1.2,0.8-1.8
		C111.8,112.8,111.9,112,111.6,111.5z M90.8,109.5c0.4,1.5-0.1,2.6-1.3,3.5c-0.4-2.8-0.8-5.5-1.2-8.2c1.1,0,2.2,0.1,3.3,0.2
		c-0.2,1.1-0.5,2-0.7,2.9C90.8,108.4,90.7,109,90.8,109.5z M94.1,132.7c-2.1-2.6-3.6-5.4-3.7-8.8c-0.1-2.2-0.5-4.3-0.7-6.5
		c0-0.1-0.2-0.3-0.6-0.4c-0.1,1.8-0.3,3.7-0.3,5.5c0,0.9-0.4,1.4-1.1,1.7h-0.8c0.4-2.2,0.9-4.2,1.3-6.2c0.3-1.6,1.4-2.8,2.4-4.1
		c1.1-1.6,2.1-3.2,3.1-4.8c0.2-0.4,0.2-0.9,0.4-1.5c3.7-0.8,7.6-1.1,11.3,0.6c1.4,0.6,2.7,1.4,3.9,2.2c0.3,0.2,0.5,0.8,0.5,1.1
		c-0.2,1.9-0.6,3.7-0.9,5.6c-0.2,1.2-0.6,2.1-1.5,2.9c-1.6,1.5-1.6,3.4-1.2,5.4c0.3,1.601,0.7,3.3,1,4.899
		c0.1,0.4,0.1,0.801,0,1.101c-0.1,0.2-0.3,0.7-0.5,0.7c-0.3,0.1-0.8-0.1-0.9-0.301c-0.8-1.399-1.7-2.699-2.4-4.1
		c-0.6-1.1-1.1-2.3-1.6-3.5c-0.1,0-0.3,0.1-0.4,0.1c0.5,1.701,0.9,3.4,1.4,5c0.3,0.801,0.8,1.601,1.1,2.4c0.1,0.4,0,1.2-0.2,1.301
		c-0.4,0.199-1.3,0.299-1.5,0c-1.2-1.5-2.3-3-3.3-4.601c-0.6-0.8-0.9-1.601-1.6-2.3c0.2,2.9,1.1,5.5,3.2,7.6
		c-0.6,1.4-1.8,1.4-2.7,0.1c-1.4-2-2.7-4.1-4-6.1c-0.2-0.3-0.5-0.699-0.7-1c-0.2,0.1-0.3,0.1-0.4,0.2c0.8,1.7,1.6,3.5,2.5,5.2
		C94.8,132.299,94.5,132.5,94.1,132.7z M235.4,173.799c-1.101,4.5-2.4,8.9-3.801,13.301c-1.5,4.8-4.399,8.9-7.699,12.699
		c-1.4,1.601-2.801,3.301-4.4,4.701c-1.315,1.22-2.805,2.09-4.224,3.021c-3.399,2.931-7.385,5.179-11.33,6.229
		c-0.619,0.656-1.873,0.857-2.847,1.149c-4.899,1.399-9.899,2.7-14.899,3.899c-5.9,1.4-12,1.601-18.101,2.201
		c-0.5,0-1,0.299-1.5,0.6c7.801,1,15.4-0.4,22.9-2.1c7.6-1.701,15-4.201,22.1-7.4c1.4,3.699-0.5,9-3.6,11.4
		c-3.1,2.5-6.8,3.199-10.4,4.1c-5.399,1.3-11,2.199-16.6,2.6c-2.4,0.2-4.7,0.9-7.1,1c-3.101,0.2-6.301,0.301-9.4,0
		c-5.8-0.6-11.5-1.4-17.2-2.199c-7.5-1-14.899-2-22.1-4.201c-3.2-1-6.6-1.799-9.3-4c-0.6-0.399-1-1.199-1.2-1.899
		c-0.5-2.399-0.3-4.7,0.7-7.3c3.6,1.6,7.1,3.3,11.1,5c4.5,1.699,9.1,3.1,13.8,4.3c2.7,0.601,5.5,0.5,8.3,0.7
		c1.101,0.1,2.2,0.1,3.301,0.1c0.3,0,0.6-0.3,0.899-0.5c-0.3-0.199-0.5-0.6-0.8-0.6c-5.3-0.2-10.4-1.5-15.5-2.801
		c-3.3-0.799-6.5-1.699-9.8-2.6c-5.2-1.4-9.5-4.5-13.7-7.8c-4.7-3.8-8.6-8.2-11.9-13.101c-1.4-2-2.9-3.899-4.1-6.1
		c-1.4-2.6-2.6-5.4-3.7-8.199c-0.5-1.4-0.5-2.9-0.6-4.4c-0.4-4.2,0.2-8.301,0.6-12.4c0.6-5.5,1.2-11,1.9-16.5
		c0.1-1.199,0.5-2.3,0.7-3.5c0.4-2.3,0.8-4.5,1.2-6.8c0.1-0.3,0.3-0.601,0.5-0.899c1.8,1.5,3.7,1.6,5.4,0.299
		c0.2-0.199,0.4-0.199,0.7-0.299c0.3-0.101,0.7-0.101,1-0.301c0.8-0.5,1.6-0.8,2.6-0.9c1.8-0.199,2.8-1.699,2.5-3.899
		c-0.2-1.399-0.6-2.899-1.2-4.2c-1-2.199-0.4-3.1,0.8-4.9c1.1-1.6,2.1-3.2,3.9-4.2c0.3-0.2,0.5-0.8,0.7-1.2c2.2,0.7,4.3,1.5,6.5,2
		c4.3,1,8.6,2,13,2.7c4.8,0.8,9.6,1.4,14.5,2c3.5,0.4,6.9,0.6,10.4,0.8c2.699,0.2,5.399,0.399,8.1,0.399
		c2.6-0.1,5.1-0.399,7.7-0.599c1.6-0.2,3.2-0.1,4.7-0.3c7.699-0.9,15.399-1.6,23.1-2.7c4.4-0.6,8.8-1.6,13.1-2.7
		c2.301-0.6,4.601-1.7,7-2.6c0.9,2.8,1.7,5.4,2.5,8.1c2,6.5,4.101,13.1,6.101,19.7c1,3.2,2,6.4,2.8,9.7c0.5,2.2,0.7,4.601,1.1,6.899
		c0.101,1.101,0.301,2.201,0.5,3.301c0.2,1.5,0.601,3,0.601,4.5C235.7,169.299,235.9,171.6,235.4,173.799z"/>
	<path stroke="#000000" stroke-width="0.5" stroke-miterlimit="10" d="M114.8,195.417c1.3,1.261,2.67,2.47,4.095,3.618
		c-1.057-1.619-2.159-3.194-3.195-4.835c-1.8-2.699-3.8-5.199-5.2-8.1c-1.189-2.379-2.174-4.839-3.094-7.325
		c-0.2-0.474-0.381-0.966-0.545-1.471c-0.359-1-0.71-2.002-1.061-3.005c-0.378-1.134-0.583-2.324-0.705-3.528
		c-1.181-4.003-1.498-8.146-1.253-12.316c-0.073-0.435-0.122-0.871-0.168-1.309c-0.509,2.161-0.852,4.354-1.032,6.567
		c-0.041,1.885,0.032,3.78,0.258,5.687c0.061,0.516,0.103,1.032,0.136,1.547c1.119,5.25,2.308,10.624,4.927,15.308
		c0.528,0.943,1.089,1.86,1.666,2.766C111.311,191.181,113.055,193.306,114.8,195.417z"/>
	<path stroke="#000000" stroke-width="0.5" stroke-miterlimit="10" d="M140.782,212.797c-0.026-0.01-0.053-0.014-0.079-0.025
		c-9.086-4.012-15.378-13.405-17.434-23.141c-0.281,3.331,0.584,6.397,1.83,9.369c1.5,3.699,3.801,6.899,7.2,9.1
		c1.2,0.699,2.2,1.5,3.4,2.199c2,1.101,4,2.201,6.1,3.201c0.151,0.101,0.38,0.15,0.621,0.175
		C141.867,213.395,141.321,213.103,140.782,212.797z"/>
	<path stroke="#000000" stroke-width="0.5" stroke-miterlimit="10" d="M163.861,213.441c-3.495-1.367-6.526-3.766-9.178-6.429
		c-0.075,0.016-0.084,0.097-0.084,0.188c0.101,0.4,0.2,0.7,0.4,1c3.1,3.9,7.4,6,12.2,7.1c1.1,0.201,2.2,0.201,3.399,0.201
		c0.224,0,0.391-0.166,0.586-0.333C168.703,214.878,166.254,214.377,163.861,213.441z"/>
	<path stroke="#000000" stroke-width="0.5" stroke-miterlimit="10" d="M158.622,221.2c-0.359,0.137-0.706,0.296-1.022,0.5
		c2.276,0.989,5.82,0.606,6.476-0.563C162.257,221.246,160.441,221.296,158.622,221.2z"/>
	<path stroke="#000000" stroke-width="0.5" stroke-miterlimit="10" d="M61.8,68.8c-0.2,0.4-0.4,0.8-0.6,1.4c1.9,1.6,4,3.3,6.7,3.8
		c1.2,0.3,2.5,0.4,3.7,0.7c0.4,0.1,0.8,0.5,1.1,0.7c-0.4,0.2-0.9,0.7-1.2,0.6c-1.6-0.2-3.1-0.6-4.6-0.9c-2.6-0.5-4.3-2.4-6.3-3.9
		c-0.3-0.3-0.8-0.4-1.2-0.6c-0.3-0.2-0.6-0.5-1.1-1c1.3-0.5,2.3-0.9,3.3-1.2C61.6,68.5,61.7,68.7,61.8,68.8z"/>
	<path stroke="#000000" stroke-width="0.5" stroke-miterlimit="10" d="M73.9,58c0-1,0.9-1.7,2-1.7c1,0,1.8,0.8,1.8,1.7
		c0,1.2-0.9,2.4-1.7,2.4C74.9,60.4,73.9,59.2,73.9,58z"/>
	<path stroke="#000000" stroke-width="0.5" stroke-miterlimit="10" d="M71.4,64c1.3-0.1,2.5,0.2,3.5,1.2c0.8,0.8,0.9,1.8,0.7,2.8
		c0,0.3-0.7,0.6-1.1,0.6c-0.2,0-0.6-0.7-0.6-0.9c0.4-1.2-0.4-1.7-1.2-2c-0.8-0.3-1.7-0.2-2.6-0.4c-0.3-0.1-0.6-0.4-0.8-0.6
		c0.3-0.2,0.5-0.4,0.8-0.5C70.5,63.9,70.9,64,71.4,64z"/>
	<path stroke="#000000" stroke-width="0.5" stroke-miterlimit="10" d="M60.8,55.9c1.7,0.1,2.8,0.9,2.7,2c0,0.3-0.2,0.6-0.3,0.8
		c-0.1,0.1-0.5,0-0.6-0.1c-1.2-1.3-2.6-0.8-4-0.7c-0.4,0.1-0.8-0.1-1.2-0.2c0.3-0.4,0.5-0.9,0.9-1C59.1,56.4,60,56.2,60.8,55.9z"/>
	<path stroke="#000000" stroke-width="0.5" stroke-miterlimit="10" d="M53.4,132.6c-0.9,0-2,1.3-2,2.3s0.8,1.3,1.6,1.399
		c1.2,0.201,2-0.6,2-1.799C55,133.5,54.3,132.6,53.4,132.6z M54.315,134.608c-0.286,0.716-1.34,1.334-1.907,0.512
		c-0.121-0.175-0.174-0.382-0.177-0.595c-0.049-0.427,0.098-0.882,0.462-1.12c0.042-0.027,0.088-0.037,0.132-0.057
		c0.126-0.09,0.263-0.161,0.417-0.188c0.229-0.04,0.409,0.063,0.517,0.214C54.213,133.588,54.535,134.059,54.315,134.608z"/>
	<path stroke="#000000" stroke-width="0.5" stroke-miterlimit="10" d="M54.3,116.1c-0.9-0.1-2,1.1-2,2s0.5,1.4,1.4,1.5
		c0.9,0.1,1.8-1,1.8-2.2C55.4,116.9,55.2,116.2,54.3,116.1z M54.818,118.128c-0.038,0.163-0.127,0.3-0.248,0.41
		c-0.418,0.445-1.135,0.593-1.564-0.005c-0.639-0.89,0.577-2.261,1.528-1.678c0.163,0.1,0.225,0.247,0.229,0.395
		c0.051,0.094,0.099,0.193,0.123,0.326C54.92,117.771,54.883,117.956,54.818,118.128z"/>
	<path stroke="#000000" stroke-width="0.5" stroke-miterlimit="10" d="M55.8,102.4c-1,0.1-1.8,0.7-1.8,1.6s0.8,1.8,1.7,1.7
		c1-0.1,1.4-0.9,1.4-1.5C57.1,102.9,56.7,102.4,55.8,102.4z M56.377,104.938c-0.132,0.076-0.278,0.106-0.427,0.118
		c-0.159,0.063-0.33,0.068-0.502,0.003c-0.222-0.02-0.439-0.119-0.617-0.325c-0.03-0.035-0.039-0.085-0.062-0.126
		c-0.28-0.35-0.287-0.766-0.112-1.117c0.041-0.146,0.111-0.288,0.227-0.416c0.145-0.16,0.317-0.225,0.493-0.235
		c0.313-0.11,0.668-0.083,0.992,0.175c0.273,0.218,0.381,0.496,0.376,0.771c0.056,0.244-0.008,0.486-0.138,0.697
		C56.628,104.652,56.57,104.827,56.377,104.938z"/>
</g>
<path d="M235.883,157.225c-0.037-0.812-1.293-0.818-1.266,0c0.141,4.261,0.27,8.518,0.253,12.781
	c-0.018,4.822-0.949,9.674-0.753,14.469c0.019,0.441,0.61,0.509,0.752,0.102C237.762,176.258,236.278,165.863,235.883,157.225z"/>
<path d="M236.609,163.725c-0.089,4.762-0.619,9.413-1.511,14.094c-0.684,3.585-1.787,7.111-1.638,10.781
	c0.016,0.377,0.592,0.61,0.771,0.209c3.264-7.274,3.587-17.21,3.658-25.084C237.898,162.898,236.625,162.9,236.609,163.725z"/>
<path d="M236.867,159.725c0.085-0.688-1.114-0.851-1.212-0.164c-0.593,4.153-0.089,8.241-0.018,12.414
	c0.084,4.944-1.466,9.74-1.958,14.625c-0.038,0.377,0.521,0.41,0.629,0.085c1.39-4.17,2.35-8.434,2.754-12.81
	C237.501,169.147,236.284,164.474,236.867,159.725z"/>
<path d="M235.953,165.975c-0.267,4.149-0.897,8.198-1.763,12.26c-0.673,3.159-1.674,6.24-1.644,9.49
	c0.004,0.427,0.643,0.651,0.845,0.229c3.075-6.426,3.73-14.919,4.155-21.979C237.608,164.947,236.019,164.956,235.953,165.975z"/>
<path d="M227.47,111.405c-0.067-0.216-0.12-0.283-0.311-0.403c-0.204-0.13-0.475-0.115-0.681,0c-0.903,0.505-1.705,1.179-2.56,1.762
	c-0.765,0.522-1.533,1.042-2.245,1.635c-0.371,0.309,0.029,0.879,0.448,0.771c1.858-0.479,3.823-1.757,5.174-3.108
	C227.462,111.896,227.54,111.633,227.47,111.405z"/>
<path d="M38.333,110.147c-0.117-0.186-0.359-0.171-0.479,0c-0.189,0.27-0.168,0.396-0.236,0.735
	c-0.066,0.333-0.488,0.825-0.66,1.133c-0.391,0.702-0.867,1.346-1.184,2.088c-0.276,0.646,0.676,1.207,0.951,0.556
	c0.349-0.815,0.886-1.521,1.328-2.286C38.378,111.812,38.7,110.73,38.333,110.147z"/>
<path d="M38.449,114.98c-0.503-0.198-1.103-0.218-1.636-0.189c-0.435,0.023-0.44,0.673,0,0.68c0.445,0.007,0.855,0.091,1.272,0.242
	c0.382,0.138,0.723,0.419,1.14,0.354c0.149-0.023,0.201-0.191,0.18-0.317C39.33,115.303,38.823,115.128,38.449,114.98z"/>
<path d="M40.183,117.261c-0.109-0.231-0.473,0.039-0.276,0.213c0.067,0.059,0.102,0.086,0.189,0.106
	c0.072,0.017,0.134-0.033,0.139-0.105C40.24,117.385,40.222,117.343,40.183,117.261z"/>
<path d="M41.509,117.155c-0.596-0.596-0.858,0.415-0.906,0.826c-0.072,0.624-0.271,1.28-0.552,1.892
	c-0.011,0.064-0.038,0.131-0.088,0.199c-0.001,0.002-0.003,0.003-0.005,0.005c-0.005,0.012-0.01,0.023-0.016,0.035
	c-0.011,0.096-0.057,0.186-0.13,0.266c-0.149,0.26-0.313,0.505-0.498,0.725c-0.182,0.218,0.049,0.576,0.317,0.411
	c0.812-0.499,1.37-0.939,1.724-1.859C41.573,119.092,42.021,117.666,41.509,117.155z"/>
<path d="M56.536,104.305c-0.234,0.187-0.453,0.383-0.72,0.521c-0.435,0.224-0.131,0.909,0.328,0.778
	c0.458-0.13,0.805-0.383,1.025-0.81C57.39,104.367,56.887,104.025,56.536,104.305z"/>
</svg>
