<?xml version="1.0" encoding="utf-8"?>
<!-- Generator: Adobe Illustrator 18.1.1, SVG Export Plug-In . SVG Version: 6.00 Build 0)  -->
<svg version="1.1" id="Layer_1" xmlns="http://www.w3.org/2000/svg" xmlns:xlink="http://www.w3.org/1999/xlink" x="0px" y="0px"
	 viewBox="-129 294.7 194 205" enable-background="new -129 294.7 194 205" xml:space="preserve">
<g>
	<path d="M-27.9,481c-0.5-2.7-1-5.3-1.6-7.9c-1-4.7-2-9.3-2.9-14.1c-0.7-4.1-1.4-8.2-2-12.3c-0.5-3.3-0.7-6.7-1-10
		c-0.1-1.2,0.2-2.3,0-3.5c-0.5-2.9-1.1-5.7-1.6-8.6c-0.4-2.2-0.8-4.4-1-6.5c-0.2-2-0.2-4.2-0.4-6.2c-0.1-1.3-0.5-2.5-0.5-3.8
		c0.1-4.5,0.2-8.9,1.6-13.3c0.8-2.7,1.1-5.6,1.6-8.4c0.5-2.9,1.2-5.9,1.2-8.9c0.1-4.5,0-8.7-1.3-13c-0.3-1-0.8-1.7-1.9-2.1
		c-1.7-0.5-3.2-1.2-4.8-1.6c-3.1-0.8-6.3-1.5-9.5-2.3c-1-0.3-1.8-2-1.2-2.9c0.3-0.3,0.7-0.6,1.1-0.9c3.3-2.3,6.3-4.9,6.9-9.4
		c0.1-0.8,0.6-1.8,1.3-2.4c1.4-1.3,2.6-2.5,3.2-4.3c0.5-1.6,0.7-3.1-0.3-4.6c-0.2-0.4-0.4-0.9-0.3-1.3c0.2-0.7,0.5-1.6,0.9-2.3
		c1-1.8,1-3.8,1.2-5.7c0-0.3,0.2-0.7,0.4-0.9c1.5-1.5,2.9-3.1,3.2-5.3c0.1-0.4-0.1-1-0.4-1.4c-0.4-0.4-1-0.8-1.5-1
		c-1.2-0.5-2.3-0.9-3.5-1.4c-3.2-1.5-6.4-2.9-9.6-4.5c-2.1-1-4.2-2.1-6.8-1.8c-3.8,0.4-7.3,1.2-10.4,3.3c-1.9,1.3-3.7,2.7-4.8,4.7
		c-0.4,0.9-0.8,1.7-1.2,2.6c-1.3,3.3-2,6.6-1.6,10.2c0,0.2,0,0.3-0.1,0.5c-0.4,0.8-0.9,1.6-1.2,2.5c-0.7,2.8-0.7,5.5,0.9,8
		c0.3,0.4,0.4,1.1,0.4,1.6c0.1,1.2-0.1,2.3-0.1,3.5c0,1.2,0.3,2.1,1.2,2.8c0.4,0.4,1.2,0.5,1.8,0.7c-0.4,0.2-1,0.3-1.5,0.6
		c-1,0.5-2,1-2.9,1.7c-0.4,0.3-0.6,1-0.7,1.6c-0.2,0.7-0.1,1.6-0.4,2.3c-0.5,1.4-0.8,2.6,0.1,4c-0.2,0.1-0.4,0.2-0.5,0.2
		c-2.7,0.7-5.2,1.5-7.8,2.3c-0.4,0.2-0.8,0.5-1.1,0.8c-0.4,0.4-0.7,1-1,1.6c-2.2,3.5-4.5,7.1-6.6,10.7c-0.6,1-1.1,1.5-2.3,1.4
		c-0.7,0-1.5,0.2-2.2,0.5c-0.4,0.2-0.8,0.9-0.8,1.4c0,0.4,0.4,1,0.7,1.6c-0.6,0.3-1.2,0.6-1.9,0.8c-0.9,0.3-2.1,1.5-2,2.4
		c0.1,0.6,0.7,1.3,1.1,2c-0.5,0.2-1.1,0.6-1.7,0.9c-0.6,0.9-0.8,1.9-0.7,3c0.2,0.3,0.4,0.6,0.7,0.9c-0.5,1.1-1.2,2.3-1.9,3.5
		c-1.4,2.7-2.4,5.6-2.1,8.8c0,0.5,0,1.2,0.4,1.6c1.6,1.6,3.1,3,4.7,4.4c0.3,0.3,0.9,0.4,1.4,0.4c1.2,0,2.2-0.2,3.4-0.3
		c1.2-0.1,2.2-0.1,3.4-0.2c0.8-0.1,1.6-0.2,2.4-0.3c-0.3,2.9-0.7,5.6-0.9,8.4c-0.1,1.7-0.1,3.6-0.1,5.3c-0.1,2.7-0.2,5.2-0.1,7.8
		c0.2,2.9,0.6,5.9,0.9,8.8c0,0.2,0.3,0.6,0.4,0.6c0.2,0,0.5-0.2,0.7-0.4c1.4-1.5,2.6-3.2,4.1-4.9c0.1,1,0.2,1.8,0.2,2.6
		c0.2,4.5-0.2,8.9,0.5,13.3c0.6,4.6,1.3,9.1,2,13.7c0.3,1.6,0.7,3.1,1,4.7c0.4,2.1,0.6,4.2,0.9,6.3c0.5,3.2,1.2,6.4,1.6,9.7
		c0.1,1,0.6,1.7,1.6,2c2.7,0.8,5.2,1.9,8.1,2.2c1.9,0.2,3.8,0.4,5.6,0.2c2.2-0.2,4.3-0.6,6-2.1c0.3-0.2,0.7-0.6,0.7-0.9
		c0.1-0.9,0.1-1.7,0-2.6c-1-6.3-1-12.7-0.9-19.1c0.1-1.5,0.3-3.1,0.4-4.7c1.6,3.4,3.1,6.7,4.5,10.1c0.9,2,1.7,4.1,2.5,6.2
		c1.2,3.3,2.2,6.6,3.3,9.9c0.4,1.1,1,1.8,2.1,2.1c1.4,0.3,2.7,0.7,4.1,0.7c2.7-0.1,5.2-0.3,7.8-0.6c2.2-0.3,4.2-1,6-2.3
		C-27.8,483.3-27.5,482.6-27.9,481z M-50.4,359.6c3.6,1.2,7.1,2.3,10.8,3.5c-5.5,1.9-7.7,6.4-9.5,11.1c0.1,0.1,0.2,0.1,0.3,0.2
		c0.3-0.4,0.6-0.9,0.8-1.3s0.4-0.9,0.7-1.4c1.5-2.7,3.3-5.4,6-7.1c0.8-0.5,1.7-0.7,2.6-0.9c1.1-0.2,1.6,0.5,2,1.4
		c1.3,3,1.5,6.1,1.5,9.3c0.1,3.8-0.7,7.5-1.2,11.3c-0.9,6.9-3.2,13.5-4.8,20.2c-0.3,0.9-0.5,1.8-1,2.6c-0.3,0.6-1,1.1-1.6,1.5
		c-1.9,1.2-3.9,2.5-6.3,2.2c-1.6-0.2-3.1-0.9-4.7-1.5c-4.2-1.6-8.4-3.4-12.6-5.1c-2.5-1-4.9-2-7.3-3.1c2-0.6,4.2-1.4,6.3-2.1
		c2.4-0.7,3.2-1.4,3.5-3.9c0.1-1,0.2-1.9,0.3-2.7c1.7-0.1,3.3-0.1,4.9-0.4c3.8-0.7,7.1,0.5,10.1,2.7c0.1,0.1,0.2,0.1,0.3,0.2
		c-0.8-1.6-2.2-2.1-3.5-2.9c1.6,0.1,3.4,0.2,5.1,0.3c-0.9-0.7-2.1-0.8-6.1-0.7c0.5-1.6,1.2-3.1,1.7-4.7c1-2.9,1.8-5.7,2.7-8.6
		c0.1-0.2,0-0.5-0.1-0.8c-1.7,4-4,7.7-4.6,12.2c-1.2-2-3.4-2.2-5.2-2.9c0.9-1.7,1.6-3.3,2.5-4.9c1-1.8,2-3.6,3.1-5.3
		c0.1-0.2,0.2-0.3,0.4-0.4c0.6-0.4,0.6-0.8,0.2-1.2c-0.9-1-1.7-1.9-2.7-3.1c1.7-2.1,3.4-4.3,5.1-6.4c0.9-1.2,1.9-2.2,2.9-3.3
		c0.5-0.5,0.2-1.4-0.7-2.1c-0.6-0.4-1.3-1-2-1.6C-50.5,359.8-50.4,359.7-50.4,359.6z M-65.2,387.2c0,0.4-0.7,0.8-1,1.2
		c-0.1-0.1-0.2-0.1-0.3-0.2c-0.3-1-1-1.2-1.9-1.1c-1.6,0.4-3.3,0.7-4.9,1.1c-0.3,0-0.6,0-1.1,0.1c0.1-4.3,0.2-8.3,0.4-12.4
		c0.2-4.1,0.4-8.1,0.7-12.3c1.5,1.1,3.3,0.9,4.9,0.9h5.1c-0.5,4.8-1,9.7-1.4,14.6C-65,381.8-65,384.5-65.2,387.2z M-60.9,389.3
		c1.2,0,2.2,0.2,3.4,0.3c1.9,0.2,2.3,1.8,3.5,3.1c-1.2-0.2-1.9-0.4-2.8-0.4c-2.4,0-4.8,0-7.2,0.1c-0.7,0-0.9-0.2-1-0.9
		c-0.1-0.7-0.5-1.3-0.8-2.2C-64,389.3-62.5,389.2-60.9,389.3z M-51.6,359.5c1,1,1.9,2.1,2.6,3c-1.9,2.3-4,4.7-5.8,7
		c-1,1.4-1.8,2.7-2.7,4.2c-0.1,0.2,0,0.6,0.2,0.8c0.9,0.8,1.7,1.7,2.5,2.4c-1.8,3.6-3.8,7.2-5.7,10.8h-3.4c0-1.5-0.1-2.9,0-4.3
		c0.2-3.8,0.4-7.5,0.6-11.2c0.2-2.4,0.2-4.8,0.3-7.2c0-0.6,0.2-0.8,0.9-1c2.3-0.4,4.6-1,6.8-1.7C-53.8,361.9-52.7,361-51.6,359.5z
		 M-53,358.1c0.2,0.1,0.2,0.8,0.1,1c-0.4,0.5-0.9,1.2-1.5,1.7c-2.1,1.6-4.6,1.7-7,2.2c-1.4,0.3-2.8,0.4-4.3,0.5
		c-1.9,0-3.8,0.1-5.6,0c-1.7-0.1-2.8-1.2-3.9-2.4c2.8-1.6,5.5-3.1,8.2-4.5c1.4-0.6,2.9-1,4.4-1.4c0.3-0.1,0.7,0,1,0.1
		c2,1.1,4.3,1.6,6.6,1.2c0.2,0,0.4,0,0.6-0.1c0.2,0,0.4-0.1,0.7-0.3C-54,357.1-53.9,357.7-53,358.1z M-65.2,353.3
		c0.5,0.3,1,0.7,1.3,0.9c-3.1,1.5-6.2,3-9.7,4.7c0.5-1.1,1-2,1.5-3c0.2-0.5,0.6-0.9,0.8-1.3C-70,351.6-67.5,351.8-65.2,353.3z
		 M-71.1,351.5c-0.3,0-0.6-0.4-0.8-0.6c0-0.1,0.3-0.4,0.4-0.6c0.2-0.5,0.3-0.9,0.5-1.4c0.1-0.4,0.2-0.8,0.3-1.2
		c1,1.4,1.8,2.6,2.7,3.7C-68.9,351.4-70,351.5-71.1,351.5z M-73.2,340.7c-2.4-2.2-2.3-5-1.8-7.8c0.1-0.5,0.2-1,0.3-1.6
		c0.1-0.9,0.7-1.3,1.6-1.3c0.7,0,1.6,0.7,1.7,1.4c0.1,1.3,0.2,2.5,0.2,3.8c0,1.1,0.2,1.4,1.6,1.7c0.3-1,0.5-2,0.3-2.8
		c0.3-0.8,0.6-1.6,1-2.4c0.2-0.3,0.7-0.6,1-0.6c0.7,0,0.9-0.4,1-1c0.1-1.3,0.3-2.4,0.3-3.7c0-3,1.1-3.8,3.8-4.6
		c1.3-0.3,2.7-0.3,4.1-0.1c1.4,0.2,2.6,0.9,3.9,1.5c2.4,1.1,4.8,2.3,7.3,3.2c1.3,0.4,2.7,0.3,4.2,0.4v5.1c-3.2-1.4-4.9,1-6.6,3
		c0.3-0.3,0.6-0.7,1-0.9c0.9-0.5,1.6-1.1,2.5-1.5c2.2-0.9,3.5,0.3,4.3,1.9c1.1,2.4-0.4,7.1-3.1,8.1c-0.7,0.2-1.5,0.8-2.3,0.1
		c-0.4-0.3-0.7-0.8-0.8-1.3c-0.2-1.3-0.7-2.2-2.1-2.6c2.3,3.1,1.8,4.6-1.8,6.5c1.9,0.3,2.8-0.2,3.9-2c1.1,0,2,0.1,3.1,0.2
		c-0.9,2-1.5,4.2-2.6,6.1c-1.1,2-3.3,2.9-5,4.3c-3.1,2.3-6.1,2.1-9.3,0.3c-2.4-1.5-4.9-3.1-6.7-5.3c-0.7-1-1.2-2-1.8-3.1
		c-0.2-0.2-0.1-0.6-0.1-0.9c0-0.7,0.1-1.4,0.1-2.2c0-0.1-0.3-0.3-0.5-0.3C-71.8,342.5-72.4,341.4-73.2,340.7z M-76.7,356.6
		c0.5-1.1,0.8-2.2,0.6-3.5c-0.1-1,0.7-1.8,1.5-2.4c0.7-0.5,1.6-1,2.4-1.4c-0.1,0.2-0.2,0.4-0.3,0.6c-0.2,0.3-0.7,0.7-0.6,0.8
		c0.3,0.6,0.7,1.1,1.1,1.5c0.2,0.2,0.5,0.2,0.8,0.3c-0.5,0.9-1.2,1.6-1.8,2.5c-0.8,1.2-1.6,2.4-1.5,4c0,0.2-0.3,0.5-0.5,0.8
		c-0.4-0.3-0.8-0.5-1.2-0.7C-76.8,358.4-77.3,357.7-76.7,356.6z M-76.7,359.4c0.1,0.3,0.2,0.5,0.3,0.7c-0.2,0.1-0.5,0.2-0.5,0.2
		c0.5,0.6,0.9,1.4,1.5,2.1c0.3,0.3,0.7,0.5,1.2,0.8c-0.7,8.5-1.4,16.9-2.1,25.3c-0.6-0.1-1.4,0.5-2.2-0.3c-0.3-0.3-0.6-0.4-0.7-0.7
		c-1.2-2.7-2.3-5.5-3.5-8.3c-0.5-1.4-1-2.7-1.6-4c2-0.8,4-1.6,5.9-2.4c-1.7-2.7-3.5-5.2-5.2-7.9C-81.4,363.2-79.1,361.3-76.7,359.4z
		 M-80,388.9c-1.2,0.2-2.1,0.3-2.9,0.5c0-0.1-0.1-0.2-0.1-0.3c0.6-0.4,1.3-0.9,2-1.2C-80.8,387.8-80.4,388.5-80,388.9z M-87.2,365.4
		c0.2,2,0.5,4,0.7,5.9h0.3v-2.4c0-1.6,0.1-3.4,0.3-5c0.1-0.3,0.3-0.8,0.5-0.9c1.5-0.5,3-1.2,4.6-1.8c0.1,0,0.1,0.1,0.2,0.2
		c-0.9,0.7-1.9,1.3-2.9,1.8c-0.3,0.2-0.6,0.4-0.8,0.7c-1,1.2-1.3,1.4-0.1,2.8c1.4,1.6,2.6,3.3,4,5c-1.5,0.6-2.8,1.4-4.3,2.1
		c-0.6,0.3-0.8,0.7-0.6,1.3c0.4,1.6,0.8,3.1,1.4,4.7c0.9,2.2,1.8,4.6,2.8,6.8v0.4c-0.2-0.2-0.4-0.3-0.5-0.4c-1.2-1.4-2.3-3-2.8-4.9
		c-0.3-0.8-0.9-1.7-1.5-2.4c-0.8-0.8-1.7-1.6-2.6-2.3c-0.8-0.7-1.6-0.4-2,0.7c-0.2,0.4-0.3,0.9-0.5,1.4c-1-1.1-1.8-2-2.8-3.1
		C-90.9,373.2-89.8,368.8-87.2,365.4z M-103.2,386.5c0.8-0.5,1.6-1,2.6-1.3c0.6-0.2,1.3,0.1,2,0.2c0.8,0.1,1.6,0.2,2.5,0.3
		c0-1.1-0.8-1.4-1-1.5c-0.9-0.5-1.7-0.9-2.8-0.4c-0.8,0.4-1.1-0.2-1.4-0.7c0.3-0.6,0.6-1.2,1-1.5c1.1-0.8,2.3-1.4,3.7-1
		c0.6,0.2,1.2,0.5,1.8,0.7c0.5,0.2,1.1,0.3,1.7,0.4c0.1-0.1,0.1-0.2,0.2-0.3c-0.3-0.3-0.6-0.6-0.9-0.8c-1-0.8-1.8-1.5-3.1-1.5
		c-0.5,0-1.1-0.6-1.5-1c-0.1-0.1-0.1-0.7,0.1-0.8c0.4-0.2,0.9-0.5,1.4-0.5c2,0.1,3.7,0.8,5.2,2.4c1.2,1.5,2.7,2.6,4.2,4
		c0.1,0,0.2,0.1,0.5,0.2c0-0.3,0-0.6-0.1-0.7c-0.5-0.6-1-1.1-1.5-1.6c-1.1-1-1.2-2.2-0.3-3.6c1.3,1.6,3.1,2.6,3.8,4.5
		c0.4,1.1,0.8,2.1,1.2,3.2c0.2,0.4,0.4,0.9,0.7,1.3c0.3,0.5,0.9,1,0.9,1.4c-0.1,0.4-0.7,0.8-1.1,1.2c-0.2,0.2-0.5,0.4-0.7,0.4
		c-1.4,0.1-2.8,0.2-4.3,0.3c-1.6,0.1-3,0.1-4.5,0.2c-1.4,0.2-2.3-0.4-3.4-1c-1.6-0.9-3.7-1.8-4.8-1.6c0.2,0.1,0.4,0.2,0.6,0.3
		c-0.1,0.1-0.1,0.2-0.1,0.2c-0.8,0.6-1.6,0.5-2.4,0.2c-0.3-0.1-0.5-0.5-0.6-0.8C-103.7,387.1-103.4,386.6-103.2,386.5z M-98.5,407.5
		c-1.5,0.1-2.7-0.2-3.8-1.3c-1.2-1.2-2.4-2.1-3.6-3.3c-0.2-0.3-0.4-0.7-0.4-1c0-2.3,0.1-4.5,1.1-6.6c0.7-1.7,1.4-3.6,2.2-5.3
		c0.1-0.3,0.6-0.5,1-0.7c1.7-0.7,3-0.5,4.3,0.8c0.2,0.1,0.5,0.2,0.7,0.3c-1.1,0.9-2,1.8-3.4,3.1c0.1,0,0.1,0.1,0.2,0.2
		c0.5-0.4,1.1-0.8,1.6-1.2c1.4-1.1,3-1.4,4.7-1.4c3.9,0,7.9-0.2,11.8,0c3.3,0.1,6.3-0.6,9.4-1.3c1.3-0.3,2.5-0.8,3.8-1.3
		c0.5-0.2,0.9-0.2,1.2,0.3c1.5,2.5,2,5.2,1.7,8c-0.1,1.3-1.2,1.4-2.1,1.7c-4.1,1.6-8.1,3.2-12.3,4.7c-3.3,1.2-6.6,2-9.9,3
		C-93,407-95.7,407.3-98.5,407.5z M-91.4,436.8c-0.2-1.8-0.5-3.3-0.5-4.9c-0.2-7.1,0.3-14.3,0.9-21.5c0.1-1,0.1-1.9,0.2-3.1
		c4.5-0.5,8.6-2.7,13.2-3.6c0,0.1,0.1,0.1,0.2,0.2c-0.3,0.6-0.6,1.3-1,2c-1.7,2.9-3.5,5.7-5.1,8.7c-1.4,2.5-2.8,5-3.8,7.7
		c-0.9,2.7-1.5,5.5-2.1,8.3c-0.3,1.3-0.2,2.7-0.5,4C-90.1,435.2-90.8,435.9-91.4,436.8z M-86.4,430.1c0,0.3,0,0.6-0.2,0.8
		c-1,1.1-1.9,2.1-3,3.3c0.5-4.1,1.4-7.8,3.2-11.3c0.1,1.5,0.1,2.9,0.1,4.3C-86.3,428.2-86.4,429.1-86.4,430.1z M-84.1,433.2
		c-0.3,0-0.8-0.3-0.8-0.6c-0.3-1.7-0.5-3.3-0.6-4.9c-0.1-0.5,0.1-1.2,0.1-1.8c0-0.2,0.1-0.4,0-0.5c-0.8-1.5,0.2-3.3-0.2-4.9
		c0-0.3,0.2-0.6,0.3-0.9c1.4-2.6,2.7-5.2,4.1-7.7c1.4-2.6,2.6-5.1,3.9-7.7c0.3-0.7,0.7-0.8,1.3-0.6c0.6,0.2,1.4,0.1,1.3,1.3
		c-0.3,3.7-1,7.2-2.1,10.7c-0.9,3-1.9,6-3.4,8.8c-1.1,2.2-2,4.5-2.7,6.8c-0.1,0.4,0,0.8-0.1,1.2c1.3-0.9,2.4-1.9,3.5-2.3
		c2-0.9,3.2-0.2,4,1.7c0.3,0.8,0.7,1.4,1.1,2.4C-77.7,433.8-80.9,433.5-84.1,433.2z M-62.3,433.5c-1.2,0.4-2.3,1.1-3.5,1.5
		c-1.6,0.6-3.2,0.7-4.9,0.1c-1.5-0.5-2.4-1.5-3-3c-1.3-3.4-3.5-4.1-6.8-2.4c-0.3,0.1-0.5,0.3-0.8,0.4c-0.1,0-0.1-0.1-0.2-0.1
		c1.2-2.5,2.2-4.9,3.2-7.1c1-2.4,2.1-4.8,2.6-7.3c0.5-3.1,1.2-6.3,1.8-9.4c0.1-0.5,0.1-1,0.1-1.7c1.5,0.5,2.8,1,4.2,1.6
		c1.7,0.6,3.2,1.4,4.8,2.2c0.2,0,0.4,0.3,0.4,0.5c0.3,2.7,0.6,5.4,0.9,8c0.3,2.7,0.5,5.4,0.8,8.1c0.3,2.3,0.7,4.6,1.2,6.9
		C-61.3,432.6-61.3,433.2-62.3,433.5z M-60.3,431.5c-0.4-2.6-0.9-5-1.3-7.5c-0.5-4.6-1.2-9.1-1.8-13.7c-0.1-0.5-0.1-0.9-0.2-1.4
		c0.1-0.1,0.3-0.1,0.4-0.2c0.2,0.5,0.6,0.9,0.7,1.6c0.5,3,0.9,6,1.4,9c0.6,4,1.4,8,2.1,12.1c0.1,0.4,0.1,0.8,0.2,1.3
		C-59.6,432.6-60.2,432.3-60.3,431.5z M-37.2,434.8c-1.5,2.4-3.7,4.2-5.8,6c-2.8,2.4-6.1,3.2-9.5,4c-0.5,0.1-1.1,0.2-1.7,0.2
		c-0.1,0-0.4-0.3-0.4-0.5c-0.9-3.5-1.7-6.9-2.5-10.4c-0.5-2.6-1.1-5.1-1.6-7.6c-0.5-2.7-0.8-5.4-1.2-8c-0.3-2-0.7-4-1.1-6
		c-0.2-0.9-0.2-1.8-0.3-2.9c1.8,0.7,3.4,1.4,4.6,2.2c2.4,0.7,4.9,1.4,7.3,2c1.1,0.3,2.2,0,3.3-0.6c1.8-1,3.2-2.1,4.5-3.6
		c0.8-0.9,1-2,1.5-3.1c0.1-0.2,0.2-0.4,0.4-0.9c0,2.2-0.2,4.3,0,6.2c0.4,5.3,1,10.6,1.7,15.8c0.2,2,0.8,4,1.1,5.9
		C-36.9,433.9-37,434.5-37.2,434.8z"/>
	<path d="M-59.6,457.7C-59.6,457.7-59.6,457.7-59.6,457.7C-59.5,457.7-59.5,457.7-59.6,457.7z"/>
	<path d="M45.4,485.1c-0.8-3.4-1.5-6.7-2.4-10c-0.6-2.7-1.6-5.4-2.2-8.1c-1.2-5.3-2.1-10.8-3.1-16.2c-0.4-2.2-1.3-4.4-0.8-6.7
		c0-0.2,0-0.3-0.1-0.4c-0.9-0.9-0.6-1.9-0.5-3c0-0.2,0-0.5-0.1-0.7c-0.2-0.5-0.6-1-0.7-1.6c-0.4-1.5-0.6-2.9-1-4.4
		c-0.3-1.3-0.8-2.5-1-3.8c-0.2-1.3-0.2-2.4-0.2-3.7c-0.1-1.9,0-4,0-5.9c0-0.7,0-1.5-0.2-2.3c-0.3-0.9-0.9-1.8-1.3-2.5
		c0.7-0.4,1.4-0.8,2.1-1.3c1.3-1.1,2-2.6,2.8-4.1c0.5-0.8,1-1.6,1.1-2.5c0.5-3.6,0.5-7.1-0.3-10.6c-1.2-5.3-3.5-10.4-5.8-15.3
		c-0.7-1.3-0.7-1.3,0.7-1.8c1.7-0.7,3.1-1.7,4.2-3.3c-0.6,0-1-0.1-1.3,0c-1.6,0.3-3.1,0.7-4.7,1.1c-0.7,0.2-1-0.1-1.4-0.7
		c-1.8-3-3.6-6-5.6-8.8c-1.3-1.8-2.6-3.8-4.8-4.8c-0.8-0.4-1.6-0.9-2.4-1.4c-0.5-0.3-0.9-0.7-1.4-1.1c0.6-0.4,1.1-0.7,1.5-1
		c0.7-0.5,1.4-1.4,2.3-1.7c1.1-0.4,1.5-1,1.7-2.1c0.4-2.6,0.9-5.2,1.3-7.7c0.2-1.6,0.5-3.4,0.3-5c-0.2-3.1-0.6-6.3-1.7-9.3
		c-1.1-2.9-2.3-5.6-4.4-7.8c-2.4-2.4-4.9-4.6-7.7-6.2c-0.7-0.5-1.5-0.9-2.3-1.3c0,0,0,0,0,0c-0.5-0.2-1-0.4-1.4-0.7
		c-0.7-0.3-1.5-0.5-2.2-0.8c-0.2,0-0.4-0.1-0.6-0.1c-0.3,0-0.5-0.1-0.8-0.1c-0.5-0.1-1-0.1-1.5-0.2c-3.1,0.3-6.2,1-9,2.4
		c-2.6,1.3-5.2,2.9-7,5.3c-1.2,1.5-2.4,3.1-2.9,5.1c-0.7,2.7-1.3,5.3-0.9,7.9c0.3,2.3,0.7,4.6,1.2,6.9c0.1,0.8,0.7,1.2,1.6,1.1
		c0.4,0,0.7-0.3,1-0.4c-0.1,1.8-0.2,3.6-0.3,5.4c-0.1,3.8-0.1,7.6,0.6,11.4c0.1,1.2,0.6,1.3,1.6,0.6c0.6-0.5,1.4-1,2.1-1.5
		c0.1,0.1,0.1,0.1,0.2,0.2c-1.7,1.7-3.2,3.6-5.4,4.7c-0.8,0.3-1.2,0.9-1.5,1.7c-0.9,2.2-1.4,4.5-1.5,6.9c-0.1,2.5-0.5,5-0.5,7.4
		c-0.1,3-0.1,6,0.2,9c0.3,4.8,1,9.4,1.6,14.2c0.3,2.4,0.6,4.9,2.5,6.7c0.1,0.1,0.1,0.4,0.1,0.6c-0.2,0.7-0.4,1.4-0.6,2.1
		c-0.9,3.5-1.9,7.1-2.2,10.8c-0.2,2.1-0.4,4.3-0.7,6.4c-0.2,1.9-0.6,3.8-0.9,5.7c-0.3,2.1-0.7,4.4-1,6.5c-0.3,1.9-0.7,4-0.9,5.9
		c-0.3,2.8-0.3,5.5-0.7,8.1c-0.6,4.3-0.9,8.4-0.4,12.7c0.5,4.4,0.9,8.8,1.3,13.2c0.1,0.5,0.2,1.2,0.3,1.8c0.2-1.1,0.1-2.2,0.1-3.3
		c0.1-3.7,0.3-7.4,0.5-11.1c0.3-4.2,0.5-8.3,0.7-12.5c0.1-2,0.1-4.1,0.3-6.1c0.5-3.5,1.1-6.9,1.6-10.4c0.2-1.7,0.3-3.6,0.5-5.3
		c0.3-2.2,0.7-4.4,1-6.6c0.4-3,0.9-6,1.3-9c0.4-2.4,0.7-4.8,1-7.2c0.1-0.6,0.2-1.1,0.3-1.5c5.9,1.8,11.7,3.5,18,3.4
		c-0.4,1.1-0.1,1.9,0.3,2.9c0.6,1.4,0.5,2.9,0.7,4.4c0.1,1.1,0.3,2.1,0.5,3.1c0.3,1,0.6,1.9,0.4,3c-0.3,1.6-0.2,3.3-0.4,4.9
		c-0.4,3.1-0.9,6.2-1.1,9.3c-0.2,3.1-0.1,6.3-0.2,9.4c-0.3,6.8-0.5,13.5-1,20.2c-0.3,4.2-0.7,8.2-0.4,12.4c0.1,0.8,0.3,1.6,0.4,2.4
		c0.1,0,0.2-0.1,0.4,1c0.2-2.8,0.4-5.4,0.6-8.1c2.7-0.4,5.2-0.8,8-1.3c-0.9,3.3-1.7,6.4-2.5,9.5c0.7,0,1.4,0,1.7-0.7
		c1.4-2.9,2.5-5.8,3-8.9c0.1-0.7,0.5-1,1.1-1.2c1.9-0.6,3.8-1.3,5.7-2c1.6-0.5,3.2-1,4.8-1.6c-0.1,0.5-0.1,0.8-0.2,1.1
		c-0.5,2-1,4.1-1.5,6.1c-0.4,1.6-0.8,3.2-1.4,4.8c-0.3,0.8-0.3,1.4,0.3,2.2c0.1-0.3,0.3-0.5,0.4-0.7c2-3.4,3.3-7.1,3.6-11
		c0.2-2.6,1.2-4.1,3.7-4.7c0.1-0.1,0.2-0.1,0.3-0.2c0.3-0.3,0.7-0.6,0.8-0.9c1.3-4.7,1.3-9.5,1.7-14.3c0.2-2.7,0.1-5.3,0.2-7.9
		c0-0.2,0-0.4,0.1-0.5c1-1,1.8-1.8,2.9-2.8c2.1,13.6,4.4,27,9.9,39.5C45.5,485.6,45.5,485.3,45.4,485.1z M31.4,384.9
		c0.6,1.3,1.3,2.5,1.9,3.8c0.7,1.6,1.4,3.4,2.2,5c1,1.9,1.1,4,1.3,6c0.3,2.8-0.1,5.5-0.7,8.2c-0.4,1.7-1.3,3.4-2.4,4.9
		c-0.5,0.8-1.8,1.2-2.8,1.4c-1.3,0.2-2.5,0.3-3.8-0.7c0.4-0.1,0.6-0.3,0.9-0.2c2.4,0.1,4.2-1.9,3.9-4.2c-0.2-0.8-0.2-1.6-0.4-2.5
		c-0.2-0.6-0.4-1.2-0.7-1.8c-0.4-0.9-0.8-1.7-1.2-2.5c1.5-2.2,1.9-4.6,1.8-7.3c0.9,0.6,1.7,1.1,2.4,1.5c0.1-0.4,0.1-0.4-1.5-2
		c0.5,0.1,1,0.1,1.4,0.2c-0.2-0.7-0.6-0.8-1.8-0.2c-0.3-1.6-0.6-3-0.8-4.6c-0.1-0.4,0-1.1,0.2-1.6c0.5-1.2,0.3-2.2-0.2-3.3
		C31.2,385,31.3,384.9,31.4,384.9z M4.9,404c0-0.4,0.1-0.7,0.2-1.1c0,0,0.1,0,0.2,0c0.2,0.4,0.5,0.9,1.1,1.3
		c1.4,1.6,1.8,1.8,3.1,0.4c0.2-0.3,0.4-0.4,0.8-0.5c-0.3,0.4-0.5,0.8-0.8,1.2c0.1,0.1,0.1,0.1,0.2,0.2c0.4-0.4,0.9-0.8,1.2-1.2
		c1.3-1.6,3-2.2,5.1-1.8c0.9,0.2,1.3,0.9,1.6,1.6c0.6,1.7,0.7,3.6,0.4,5.4c-0.1,0.6-0.3,1.2-0.5,1.7c0,0.4-0.2,0.7-0.5,1
		c-0.2,0.3-0.4,0.6-0.7,0.7c-0.2,0.4-0.6,0.6-1.2,0.6c0-0.1,0-0.1,0-0.2c-0.1,0-0.1,0-0.2,0c-0.1,0-0.2,0-0.3,0
		c-0.2,0-0.4-0.1-0.5-0.2c-0.1-0.1-0.2-0.1-0.3-0.2c0,0-0.1,0-0.1,0c0-0.1-0.1-0.1-0.1-0.2c0,0,0,0,0,0c0-0.1-0.1-0.1-0.1-0.2
		c-0.4-0.7-0.8-1.3-1.1-2.1c-0.4-1.3-0.8-2.6-1.2-3.9c-0.2-0.5-0.5-0.6-1-0.6c-1.5-0.1-3-0.3-4.6-0.4c-0.5-0.1-0.6-0.3-0.5-0.8
		C5,404.5,4.9,404.3,4.9,404z M11.3,411.2c0.4,0.5,0.7,1.1,1.1,1.6c1.5,2,3.7,1.3,4.9-0.3c0.6-0.8,1-1.7,1.5-2.7
		c1.6,0.7,2.4-1.1,3.5-1.4c0,0.1,0.1,0.1,0.1,0.2c-1,0.7-1.9,1.4-2.8,2.1c0,0,0,0,0,0c-0.3,0.6-0.3,1.3-0.2,1.9
		c0.4,0.4,0.8,0.8,1.1,1.2c0,0.3-0.1,0.8-0.2,1.4c-3,0.6-6.1,0.8-9.3-0.2C11.1,413.7,11.2,412.5,11.3,411.2z M19.1,408.9
		c0.1-0.4,0-1,0.2-1.1c1.4-1,2.7-1.8,4.3-2.8c0.1,0.9,0.4,1.5,0.2,1.9c-0.2,0.4-0.9,0.5-1.4,0.8c-0.8,0.4-1.5,0.9-2.4,1.3
		C19.8,409.1,19.4,408.9,19.1,408.9z M19.9,412.6c-0.1-0.3-0.2-0.5-0.1-0.8c0,0,0,0,0,0c0,0,0-0.1,0.1-0.1c0-0.1,0.1-0.2,0.2-0.3
		c0,0,0.1,0,0.1-0.1c0.1-0.1,0.2-0.2,0.3-0.3c1.2-1,2.3-1.8,3.5-2.8c0.1,0.5,0.2,1.1,0.3,1.6c0.6,0.7,0.5,1.2-0.2,1.6
		c-0.9,0.6-1.8,1.2-2.8,1.6c-0.3,0.1-0.4,0.1-0.6,0C20.3,413,20,412.8,19.9,412.6z M22.2,413.9c2.3-0.8,2.3-0.8,3.6-2.3
		c0.3,0.3,0.7,0.6,1,0.7c-0.8,1-4.2,2.6-5.7,2.4C21.6,414.4,21.9,414,22.2,413.9z M26.2,410.9c-2-2.1-2.1-4.5-2.5-6.7
		c-1.7,0.5-3,2-4.9,1.9c-0.5-1.8-0.7-3.7-2.6-4.4c-1.7-0.6-3.3-0.3-4.9,0.7c-0.1-0.1-0.1-0.1-0.2-0.2c0.4-0.6,0.8-1.2,1.2-1.9
		c0.6-1.2,0.7-2.5,0.5-3.8c-0.1-0.6-0.4-1.2,0.4-1.6c0.1,0,0.2-0.2,0.2-0.3c0.1-0.3,0.2-0.6,0.4-0.9c0.1-0.7,0.1-1.4,0.3-2.1
		c0-0.1,0-0.1-0.1-0.2c-0.1-0.1-0.2-0.3-0.2-0.5c0,0,0-0.1,0-0.1c-0.4-1.6-0.8-3.1-1.2-4.7h-0.3c0,0.4,0,0.8-0.1,1.1
		c0.2,1.7,0.5,3.5,0.6,5.2c0.1,0.6-0.3,1.4-0.4,2.2v0.7c0.3,1.3,0,2.6-0.4,3.8c-0.4,1.2-1.1,2.3-1.8,3.4c0-0.4,0.1-0.9,0.1-1.3h-0.1
		c-0.1,0.2-0.3,0.4-0.3,0.6c-0.2,1.1-1.1,1.8-2.1,2.4c-0.2,0.1-0.8-0.1-1-0.4c-0.2-0.3-0.2-0.8-0.4-1.2c-0.2-0.4,0.1-1.3-0.9-1.3
		c0,0-0.1-0.2-0.1-0.4c-0.1-1.6-0.4-3.3-0.3-4.9c0.1-1.2,0.6-2.2,0.9-3.4c-1.3-1,0.4-1.8,0.1-2.9c-0.2,0-0.6-0.1-1-0.2
		c-0.1-1.3,0.4-1.9,1.9-2.4c3.8-1.1,7.5-2.2,11.3-3.3c0.1,0,0.3,0,0.5-0.1c-0.1,0.4-0.2,0.8-0.3,1.1c-0.2,0-0.3,0-0.5,0
		c0,0,0.1,0,0.1,0.1c0.2,0,0.5,0,0.8,0.1c0.6-1.6,0.8-1.6,2.5-0.6c-0.4-0.4-0.8-0.9-1.2-1.4c2.4-0.6,4.8-1.2,7.2-1.9
		c0.8-0.2,1.2,0.1,1.6,0.7c-0.3,0.1-0.5,0.2-0.8,0.4c1.6,1.1,2.9,2.4,2.7,4.4c-0.1,0.1-0.2,0.1-0.3,0.2c-0.3-0.5-0.5-1.1-0.9-1.6
		c-0.5-1-1.3-1.8-2-2.7c0,0-0.1-0.1-0.2-0.1c-0.7,0-1.6-0.1-2.3,0.2c-0.6,0.2-1.1,0.8-1.9,1.4c1.1,0.5,1-0.8,1.8-0.8
		c0.1,0.2,0.3,0.4,0.5,0.6c0.5-0.3,1-0.7,1.4-1c0,0.1,0.1,0.1,0.2,0.2c0,0.3,0,0.6-0.1,1c0.9-0.1,1.7,0.2,2.1,1.2
		c0.1,0.3-0.1,0.6-0.2,1.1c0.1,0.1,0.5,0.4,0.8,0.8c0.3,0.4,0.4,0.8,0.7,1.3c-0.5,0-0.7,0-1.1,0.4c1.7,2.5,1.7,3.2,0.6,3.6
		c0.3,0.6,0.7,1.3,0.9,2c0,0.2-0.3,0.5-0.3,0.8c0,0.5,0.1,0.9,0.1,1.4c-0.3-0.2-0.6-0.4-0.8-0.6c1.1,2,0.1,3.9-0.6,5.9
		c-0.9-1.2-2-1.3-3-1.2c-0.1-1.2-0.1-2.2-0.2-3.4h-0.3c-0.2,0.8-0.3,1.5-0.5,2.4c0.2-0.1,0.4-0.3,0.7-0.6c-0.5,0.9-0.6,1.8-1.6,2.4
		c-0.7,0.5-1.2,1.5-1.9,2.3c0.1,0.1,0.2,0.2,0.3,0.3c0.4-0.5,0.8-0.9,1.2-1.4c0.9-1.1,1.9-1.5,3.2-1.3c0.5,0.1,0.8,0.3,1.1,0.7
		c0,0,0.1,0,0.1,0.1c0.5,0.6,0.8,1.2,1,2c0,0,0,0.1,0,0.1c0.4,1.1,0.8,2.1,1,3.3c0.1,0.8,0.3,1.8,0.2,2.6c0,0.5-0.2,0.9-0.5,1.3
		c-0.4,0.4-0.9,0.7-1.4,0.6c-0.2,0.1-0.3,0.1-0.5,0.1C27.3,412.1,26.4,411.7,26.2,410.9z M35,377.4c-1.1,0.6-2.2,1.4-3.4,1.8
		c-4.4,1.4-8.7,2.5-13.1,3.8c-3.5,1-7,2.1-10.5,3.2c-2.6,0.7-5.1,1.4-7.6,2.1c0-0.1-0.1-0.2-0.1-0.3c1-0.4,1.9-0.8,2.9-1.2
		c1.3-0.5,2.6-0.8,3.9-1.3c0.3-0.1,0.5-0.3,0.8-0.5c0.1-1.2,0.1-2.4,0.2-3.6c0-0.4,0.4-1,0.8-1.1c4.4-1.6,8.8-3.1,13.5-3.8
		c1.1-0.2,1.9,0,2.7,0.9c0.4,0.6,1.1,1,1.8,1.6c-1.4,0.5-2.7,1.1-4.1,1.6c0,0,0.1,0.1,0.1,0.2C26.9,379.7,30.7,377.8,35,377.4z
		 M-9.2,360c-0.2-0.5-0.2-1.1,0-1.6c0.4-1.1,0.7-1.1,1.7-0.4c2,1.4,4.1,2.8,6.5,3.3c0.9,0.2,1.8,0.2,2.8,0.3c0.1,0.4,0.1,0.6,0,1
		c0.1,0.8,0.1,1.7-1,2.1c-0.2,0.1-0.5,0.4-0.6,0.7c-0.2,0.8-0.8,0.9-1.6,0.8c-3-0.5-5.8-1.5-8.6-2.7c-0.2-0.1-0.3-0.2-0.4-0.3
		c0.4-0.4,0.7-0.8,0.9-1.2C-9.1,361.5-8.9,360.8-9.2,360z M1.8,337.2c-0.1-1.1,0.1-2.1,0.3-3.5c0.6,0.6,1.1,1.1,1.4,1.6
		c1.1,2.3,2,4.6,3.1,6.9c1.5,3.4,2.3,6.9,3,10.5c0.3,1.1-0.4,1.8-1,2.5c-2,2.1-4.3,3.8-6.9,5c-0.9,0.4-2.1,0.1-3.2-0.2
		c-2.7-0.7-5-2.4-7.2-4c-1.5-1.1-2.3-2.5-3.1-4.1c-1.2-2.3-2.2-4.7-3.4-7.2c1.1-0.5,2.1-1,3.1-1.3c2.8-0.8,5.6-1.5,8.4-2.4
		c1.4-0.4,2.9-0.9,4.2-1.7C1.2,338.9,1.9,338.3,1.8,337.2z M6.7,357.9c0.9-0.6,1.7-1.3,2.5-2C8.2,358.3,8.2,358.3,6.7,357.9z
		 M7.7,358.7c-1.8,1.7-3.3,3.2-4.9,4.8c-0.1,0-0.2-0.1-0.3-0.1c0-0.8,0-1.4,0.1-2.3c0,0,0-0.2,0.1-0.2
		C4.3,360.3,5.5,358.7,7.7,358.7z M10,357.1c0,0.9,0,1.9-0.1,3.1v2.1c0.1,0.9,0.3,1.1,1.2,0.8c0.8-0.3,1.5-0.8,2.3-1.2
		c0.3-0.1,0.5-0.3,0.8-0.5c0.2,1.2-0.2,2.1-1.4,2.7c-2.8,1.2-5.6,2.4-8.7,2.5c-1,0-1.9,0-2.9-0.1C4.8,363.8,7.5,360.5,10,357.1z
		 M12.4,365.4c-0.1,1.2-0.3,2.2-0.4,3.4c-3.3-0.7-6,0-7.4,3.7c-0.1-0.1-0.2-0.2-0.3-0.3c-0.2-1.5-0.3-3.1-0.3-4.7
		C7,367.7,9.5,366.2,12.4,365.4z M4.5,374.7c0.8-1.3,1.5-2.5,2.4-3.8c0.1-0.3,0.4-0.6,0.7-0.6c2.2-0.2,4.6-0.2,6.8-0.3
		c2,0,3.4,1.2,4.9,2.4c1.4,1.1,2.5,2.2,3.9,3.5c-5.2,0.6-10,2.4-14.9,4.3c0.4-2.9,1-5.6,2.6-8.1c-0.2-0.1-0.3-0.1-0.4-0.2
		c-0.6,0.8-1.3,1.6-1.7,2.5c-0.4,0.5-0.6,0.7-1.3,0.7c-1-0.1-2,0.1-3.2,0.2C4.4,375.1,4.4,374.9,4.5,374.7z M7.6,376.5
		c-0.3,1.5-0.6,2.8-0.8,4.2c-0.2,1.1-0.2,2-0.3,3.1c-0.1,0.7-0.3,1.1-1.1,1.1c-0.2-2.6-0.3-5.3-0.5-8.2
		C5.7,376.7,6.6,376.7,7.6,376.5z M18.8,370c0.3-1.5,0.5-2.9,0.7-4.4c0.1,0,0.2-0.1,0.3-0.1c3,4,5.3,8.5,8.1,12.6
		c0,0.1-0.1,0.1-0.2,0.2c-0.7-0.6-1.4-1.2-2.2-1.8c-2.1-1.7-4.2-3.5-6.2-5.2C18.8,370.9,18.7,370.7,18.8,370z M15.2,362.7
		c0.9,0.7,1.9,1.4,2.9,2.3c0.2,0.2,0.3,0.6,0.3,0.8c-0.1,1.4-0.3,2.8-0.5,4.1c-0.8-0.3-1.6-0.6-2.5-0.8c-0.9-0.2-1.6-0.3-2.5-0.4
		c0-0.5,0.1-1,0-1.6c-0.2-1.2-0.1-2.3,1.2-3C14.5,363.8,14.8,363.2,15.2,362.7z M-17.3,345.1c-0.3-0.7-0.6-1.4-0.8-2.2
		c-0.8-3-1.3-6.1-1-9.2c0.4-4.5,2.5-8.2,6.2-10.8c2.1-1.6,4.6-2.5,7-3.5c2.6-1,5.1-1.3,7.6-0.7c1.9,0.5,3.9,1.4,5.7,2.4
		c1.4,0.7,2.6,1.7,3.8,2.7c2.6,2.3,5,4.8,6.6,7.8c1.1,2.3,2,4.8,2.7,7.3c0.5,1.8,0.4,3.8,0.5,5.7c0.1,2.8-0.2,5.6-0.9,8.2
		c0-1.1,0.1-2.1,0-3.2c-0.1-1.2-0.2-2.2-1-3.3c-0.1,0.3-0.2,0.3-0.2,0.4c0.8,2.7,0.6,5.4,0.5,8.2c-0.1,2-1.7,2.3-2.7,3.4
		c-0.9,0.6-1.7,1.1-2.2,1.8c0.8-4.6,0.4-8.9-1.2-13.2c0.1,0.5,0.2,0.9,0.3,1.4c1,3.6,1,7.3,0.6,10.9c0,0.5,0.1,1.2-0.2,1.4
		c-0.7,0.6-1.5,0.9-2.3,1.4v-5.4c0.1-3.1-0.3-6.1-1.2-9.1c-0.8-2.8-1.4-5.6-2.9-8c-1-1.7-2.2-3.4-3.4-5c-0.3-0.5-0.6-1-1-1.5
		c-0.2-0.3-0.6-0.5-0.9-0.7c-0.2,0.4-0.5,0.7-0.6,1.1c-0.2,1.4-0.2,2.7-0.4,4c0,0.3-0.3,0.7-0.6,0.9c-0.5,0.3-1.1,0.5-1.6,0.9
		c-1,0.8-1.9,0.1-2.9,0.4c-0.2,0-0.4-0.2-0.5-0.4c-1.4-1.6-1.8-3.7-2-5.7c0-0.9-0.1-1.7-0.2-2.6c0-0.4-0.1-0.7-0.2-1H-7v1.5
		c0.2,2.9,0.6,5.6,2,8.1c0.3,0.5,0.2,0.8-0.3,1c-1.1,0.5-2.1,0.9-3.1,1.3c-2.5-3.1-2.9-6.8-3.5-10.5c-0.5,0.8-0.5,3.1,0.3,5.5
		c0.6,1.7,1.5,3.4,2.3,5.1c-1.3,0.4-2.8,1-4.4,1.5c-2.6-3-2.6-6.7-2.9-10.4c-1.1,1.2,0.1,6.6,2.2,10.6
		C-15.4,344.1-16.2,344.6-17.3,345.1z M-14.1,361.2c-0.4,0.1-0.7,0.3-1.1,0.6c-1.1-5.3-0.4-10.7-0.4-15.9c1.5,3.9,3,7.9,6.2,10.7
		c-0.5,1-0.9,1.9-1.4,2.8c-0.2,0.3-0.6,0.4-1.1,0.6c0-1.8-0.1-3.6-0.2-5.2h-0.3c0,0.9-0.2,1.8,0.1,2.7
		C-11.8,359.4-12.4,360.5-14.1,361.2z M-12.9,363.7c0.4-0.5,1-1,1.6-1.6c-0.2,2.7-0.4,2.1,1.9,3.2c2.7,0.9,5.4,1.4,8.1,1.8
		c1.2,0.2,2.2,0.4,3.3,0.7c0.2,0.1,0.6,0.4,0.6,0.7c0.3,1.7,0.5,3.4,0.7,5.1c0,0.3-0.1,0.6-0.2,0.8c-0.5,0.9-1,1.6-1.6,2.5h2.6
		c0.1,2.8,0.4,5.5,0.5,8.1c0,0.3-0.3,0.7-0.6,0.8c-1.5,0.6-2.9,1.2-4.4,1.9c-0.3,0.1-0.5,0.5-0.7,0.8c0.4,0.2,0.8,0.5,1.1,0.5
		c1.3-0.1,2.6-0.4,3.9-0.7c0.3,0,0.6-0.1,1-0.2c-0.2,1-1.4,1.9,0.1,2.8c-0.4,1-0.9,1.8-0.3,2.9c0.1,0.2-0.1,0.5-0.2,0.8
		c-0.2,0.6-0.4,1.4-0.6,2.1c-0.1,0.3-0.1,0.8,0.1,0.9c0.7,0.4,0.5,1.1,0.5,1.7v3.4c-0.1-0.3-0.2-0.5-0.3-0.8c-0.6-3-1.8-5.7-3.4-8.3
		c-1.5-2.4-3.1-4.8-4.8-7c-0.4-0.5-0.4-0.8-0.1-1.3c1.2-2,2.2-4.1,3.4-6.1c0.4-0.7,1-1.4,1.4-2.2c0.1-0.2,0.1-0.6,0-0.9
		c-0.9-2-2.4-3.5-4.1-4.8c-3-2.2-6.2-4.5-9.3-6.6C-13.2,364.4-13.3,364.1-12.9,363.7z M-10.1,412.9c-1.9-0.4-3.7-1.1-5.4-2
		c-0.7-0.4-1.3-1.2-1.6-2c-1-2.9-1.6-5.9-1.6-9.1c0-1.9-0.5-3.8-0.6-5.7c-0.3-3.2-0.5-6.5-0.6-9.7c-0.1-3.2,0-6.5,0.2-9.7
		c0.1-2.1,0.5-4.3,0.9-6.4c0.3-1.8,1.8-2.4,3.4-1.2c2.7,2.1,4.7,4.8,6,8.1c0,0,0.1,0,0.2,0c0-0.6,0.2-1.3-0.1-1.9
		c-1-2.4-2.6-4.5-4.9-6.1c-0.7-0.5-1.5-0.7-2.3-1c0.8-0.4,1.6-1.1,2.5-1.6c0.2-0.1,0.7,0.3,1,0.5c1.7,1.3,3.3,2.6,4.9,4
		c2.3,2,4.8,4.2,7.1,6.2c0.5,0.4,0.8,0.8,0.3,1.6c-1.3,2-2.3,4.2-3.5,6.2c-0.2,0.4-0.5,0.7-0.7,1.1c-1,1.6-0.9,1.6,0.3,3.1
		c1.2,1.6,2.3,3.2,3.2,4.9c1.8,3.2,3.3,6.4,4.9,9.7c0.5,1,0.4,2,0.6,3.3c-0.7-0.3-1.3-0.4-1.9-0.7c-1.6-0.7-3.3-1.5-4.9-2.3
		c-0.9-0.4-1.8-0.8-2.7-1c-0.8-0.2-0.9-0.6-0.9-1.2c0-1.8,0-3.8-0.1-5.6c-0.2-4.4-0.5-8.7-0.8-13.1h-0.4c-0.4,6.2-0.4,12.4-0.6,18.2
		c-1-0.3-1.9-0.6-3-1c0,0.1-0.1,0.1-0.1,0.2c0.9,0.5,1.7,0.9,2.6,1.3c0,0.1,0,0.1,0,0.2h-2.5v0.3c0.7,0.1,1.5,0.1,2.3,0.2
		c2.5,0.3,4.9,1.2,7.2,2.4c1.9,1,4,1.7,5.9,2.6h0.3c1.8,0.2,3.7,0.3,5.6,0.5c0.5,2.7-0.2,5.4-0.3,8.1c-1.5,0.8-3.3,0.5-4.9,0.5
		C-0.1,414.8-5.2,414.1-10.1,412.9z M29.7,463.6c-0.4,1.9-0.6,4-1,5.9c0,0.3-0.3,0.7-0.5,0.8c-5.4,2.5-10.9,4.8-16.7,6.4
		c-2.8,0.8-5.6,1-8.5,1.5c0-0.8-0.1-1.6,0-2.4c0.2-2.3,0.5-4.6,0.6-6.9c0-0.8,0.3-1.2,1.2-1.4c3.8-0.8,7.6-1.5,11.3-2.5
		c4.3-1.2,8.4-2.4,12.6-3.6c0.4-0.1,0.9-0.2,1.6-0.3C30.1,462.2,29.9,462.9,29.7,463.6z M30.7,458.5c-8.9,2.4-17.7,4.9-26.7,7.3
		c0.3-2.7,0.6-5,0.6-7.4c0.1-0.5,0.2-1.1,0.1-1.6c-0.1-0.9,0.3-1.3,1.1-1.5c1.7-0.4,3.5-0.7,5.1-1.2c2.1-0.4,4.3-1.1,6.3-1.8
		c0.6-0.1,1-0.2,1.5,0.2c2.5,1.8,5.1,2.6,8,1.6c1.2-0.4,2.2-0.9,2.8-2.2c0.3-0.6,1-1.2,1.5-1.9c0.1,0.1,0.2,0.1,0.3,0.1
		C31.1,452.9,30.9,455.7,30.7,458.5z M6.2,424.3c-0.3-1.8,0-3.6,1-5.2c1-1.9,3.6-2.4,5.2-1c1.1,1,2,2.1,2.6,3.6
		c0.1,0.1,0.1,0.3,0.1,0.5c-0.1,1.8-0.3,3.6-0.5,5.4c0,0.4-0.1,0.7-0.1,1.1c0,0,0.1,0,0.2,0c0.8-1.6,0.7-3.5,1.1-5.2
		c0.2-1.8,0.3-3.7,1.6-5.3c0.9-1.2,2-1.1,2.5,0.4c0.3,0.9,0.5,1.8,0.6,2.8c0.3,2.7-0.2,5.2-0.7,7.7c-0.6,3.2-1.1,6.5-1.7,9.8
		c-0.3,1.5-2,2.5-3.2,1.7c-0.4-0.3-0.7-0.8-1-1.2c-0.2-0.3-0.4-0.6-0.7-0.9c-0.3,0.5-0.5,1-0.8,1.4c-0.9,1.2-1.5,1.1-2.5,0
		c-1-1.3-1.7-2.6-2-4.2c-0.4-2.6-1-5.1-1.7-7.6c-0.2-0.8-0.1-1.5,0-2.3C6.3,425.3,6.3,424.8,6.2,424.3z M7.3,438.4
		c0.5,1.2,1.1,2.3,2,3.2c0.6,0.7,1.7,0.9,2.7,1.3c-0.3,3.5,2.2,5.7,4.6,8.1c-3.9,0.6-7.8,1.2-11.7,1.9v-2.6c-0.1-2.7-0.1-5.4-0.2-8
		c0-0.6,0-1.3,0.1-1.9c0.3-2.2,0.7-4.4,1-6.3C6.3,435.4,6.7,437,7.3,438.4z M25.6,450.3c1.2-0.1,2.4-0.2,3.9-0.4
		c-2.2,1.9-4.3,2.5-6.8,1.4c1.5,1.2,3.2,1.3,5,0.6c-0.8,2.1-3.8,2-7.3,0.1c0.3,0.3,0.6,0.6,0.9,0.9c0.3,0.3,0.7,0.5,1.1,0.8
		c-5.6-1.5-10.4-8.5-8.8-12.7c0.3,0.2,0.7,0.3,1,0.5c1.2,0.6,2.5,0.5,3.3-0.7c0.6-0.9,1.1-1.9,1.3-3c0.7-4.7,1.4-9.4,2-14.1
		c0.1-1.3,0-2.6,0-4c0-0.5-0.1-0.9-0.3-1.3c-1.2-1.3-2.6-1.2-4.2-0.7c0,0,0,0,0,0c-0.5,0.8-1,1.6-1.5,2.5c-0.4-0.5-1-1.2-1.7-1.9
		c-1.7-1.8-3.9-2.3-5.8-1c-0.6,0.3-1.3,1-1.6,1.8c-0.9,1.9-0.9,4.1-0.5,6.2c0.2,0.9,0.2,0.9-0.4,1.4c-0.2-1-0.4-1.8-0.5-2.8
		c-0.2-1.7-0.4-3.6-0.7-5.3c-0.1-0.3-0.5-0.6-0.5-0.9c0-0.5,0.2-1,0.9-1c1.9-0.1,3.9-0.1,5.7-0.5c1.8-0.4,3.4,0.5,5,0.5h1.7
		c1.1-0.3,2.2-0.4,3.1-0.1c1.9-0.7,3.8-1.4,5.6-2.1c0.1,0,0.3-0.1,0.4-0.1c0.3-0.2,0.6-0.2,0.9,0c0.1,0,0.1,0.1,0.2,0.1
		c1,0.5,1.6,1.6,1.7,2.7c0,0,0,0,0,0.1c0.2,0.9,0.3,1.7,0.5,2.6c-0.1,0-0.2,0.1-0.3,0.1c-0.3-0.3-0.7-0.6-1.1-1
		c0.3,1.3,1.6,2.4,0.5,4c-0.3-0.5-0.5-0.9-0.7-1.3c-0.1,0.1-0.2,0.1-0.3,0.2c0.8,1.4,1.5,2.8,1.4,4.4c-0.1,0-0.2,0.1-0.3,0.1
		c-0.2-0.3-0.4-0.6-0.7-1.1c0.1,1.2,0.2,2,0.3,3c-0.5-0.1-0.8-0.1-1.2-0.2c1,1.1,1,2.2,0.8,3.4c-0.3-0.2-0.5-0.3-0.8-0.4
		c0,1,0.1,1.8,0.1,2.7c0.7,0,0.7-0.6,0.8-1.1c0.1-0.1-0.1-0.4,0-0.5c1.6-1.4,0.4-3.2,1-4.8c0-0.1-0.1-0.3,0-0.3
		c1.2-0.9,0.6-1.9,0.4-2.9c-0.1-0.5-0.1-0.9,0.1-1.4c0.3-0.7,0.2-1.5,0.3-2.7c0.6-0.5,0.6-1.3,0.4-2.4c-0.1-0.4,0.2-1,0.5-1.4
		c0.1-0.1,0.5-0.1,0.6-0.1c0,0,0,0,0,0.1c0.2,0,0.3,0.1,0.5,0.2c0,0,0,0.1,0.1,0.1c0.1,0,0.3,0.1,0.3,0.3c0,0.1,0,0.2,0,0.3
		c0.3,0.9,0.4,2,0.3,3v0.8c-0.1,3.7-0.1,7.4-0.3,11.1c0,1.2-0.2,2.4-0.6,3.6c-0.2,0.6-0.8,1-1.3,1.5c-0.3,0.3-0.8,0.5-1.2,0.8
		c-0.4,0.3-0.8,0.8-1.6,0.8c-0.5,0-1,0.6-1.5,1c-0.1-0.9-0.6-1.5-1.6-1.4c-0.6,0.1-1.5,0.1-2,1c0.9-0.2,1.8-0.6,2.4-0.3
		c0.5,0.2,0.5,1.2,0.7,2.1c0.8,0.1,0.9-1,1.5-1.4c0.6,0.6,1.2,0.1,1.8-0.4c0.8-0.6,1.6-1.2,2.4-1.8c0.1,0.1,0.3,0.2,0.4,0.3
		c-0.6,1.1-1.1,2-1.6,3.1c0.1,0,0.2,0.1,0.3,0.1c0.9-1,1.7-2,2.5-3.1c0.2,2.6-1.1,4.6-1.4,7c1-1.7,1.9-3,2.8-4.5
		c0.1,0,0.2,0.1,0.3,0.1c-0.2,0.6-0.4,1.3-0.7,1.9c-0.3,0.6-0.8,1.2-1.3,2.1c0.8-0.3,1.4-0.5,2-0.7c0.1,0.1,0.1,0.2,0.2,0.3
		C32.3,447.4,29.4,449.3,25.6,450.3z M34,439.5c-0.1,0-0.1-0.1-0.2-0.1v-1.3c-0.1-0.6-0.2-1-1-1c-0.4,0-0.8-0.4-1-0.6
		c0.5-1.6,1-3.2,1.5-4.8c0.4,2.4,0.8,4.8,1.1,7.1C34.4,439,34.1,439.3,34,439.5z"/>
	<path d="M7.9,385c4.1-1.4,8.1-2.7,12.2-4.1c0.1,0.1,0.2,0.3,0.3,0.4c-0.3,0.2-0.5,0.6-0.8,0.7c-3.6,1-7.3,1.9-11,2.9
		C8.4,385,8.2,385,7.9,385L7.9,385z"/>
	<path d="M-54.9,339.5c-0.5,1-1.3,1.3-1.9,1.3c-1,0.1-1.9,0-2.9-0.2c-1.7-0.6-3.2-1.6-4.1-3.3c-1.4-2.6-0.6-4.9,1-7.2
		c0.5-0.7,1.2-1.2,1.8-1.6c1.4-0.7,2.8-0.9,4.4-0.7c2.5,0.4,4.2,2.3,4.3,5c-0.8-2.6-2.4-4.2-5-4.2c-1.6,0-3.3,0.3-4.4,1.5
		c-1.8,1.8-2.2,4.6-0.8,7.1C-61.1,339.8-57.2,340.9-54.9,339.5z"/>
	<path d="M-51.7,349.7c-0.3,0-0.7,0.2-1,0.1c-2.1-0.6-4.3-1.2-6.3-1.8c-0.7-0.2-1.3-0.8-2-1.4c3.2,1,6.3,1.9,9.3,2.9
		C-51.7,349.6-51.7,349.7-51.7,349.7z"/>
	<path d="M-49.5,335.8c-1-0.1-1.8-0.2-2.8-0.3c-0.2,0-0.4-0.5-0.6-0.8C-51.4,334-49.7,334.6-49.5,335.8z"/>
	<path d="M-44.3,339.4c0.6-1.5,1.2-2.9,1.6-4.3c0.1,1.6-0.7,3-1.3,4.5C-44,339.4-44.1,339.4-44.3,339.4z"/>
	<path d="M-71.8,406.5c-0.5,7.3-1.6,14.6-1.4,21.8c-0.1,0-0.2,0-0.3,0c-0.2-1.1-0.6-2.1-0.5-3.2c0.1-5.8,0.6-11.6,1.7-17.4
		C-72.2,407.4-72,407-71.8,406.5z"/>
	<path d="M-70.1,383.6c-0.1-1.4-0.4-2.6-0.4-4c0-1.8,0.1-3.6,0.3-5.4c0.4-2.7,0.5-5.3-0.2-8.1c0-0.1,0-0.3,0-0.5
		c0.8,1.6,1.3,3.2,1.2,4.9c-0.2,2.8-0.5,5.6-0.7,8.4c-0.1,1.1,0.1,2.1,0.1,3.2C-69.8,382.6-69.9,383-70.1,383.6
		C-70,383.6-70.1,383.6-70.1,383.6z"/>
	<path d="M-95.3,382.6c-1.2-0.4-2.4-0.8-3.6-1.2c0-0.1,0.1-0.2,0.1-0.3c1.3,0.4,2.4,0.8,3.7,1.2C-95.2,382.4-95.3,382.5-95.3,382.6z
		"/>
	<path d="M-58.6,357.6c-1.7,0.7-3.5,1.5-5.2,2.1c0,0.1,0.1,0.2,0.1,0.3c2.3-0.5,4.6-1,6.9-1.5c-3.3,1.7-6.9,2.8-10.8,2.5
		c-0.2-0.6-0.1-0.9,0.6-1.2c2.2-0.7,4.4-1.5,6.5-2.3c-1.3,0.2-2.5,0.4-3.8,0.6c1.8-0.7,3.6-1.5,5.5-1
		C-58.7,357.3-58.6,357.4-58.6,357.6z"/>
	<path d="M9.5,324.9c2.8,1.1,6.9,5.5,6.8,8.2c-1-1.5-2-3-3.2-4.4c-0.9-1-1.9-1.8-2.9-2.7C10,325.8,9.8,325.3,9.5,324.9z"/>
	<path d="M12.4,334.5c-1.2-2.4-2.9-4.4-4.9-6.1c-0.4-0.3-0.8-0.5-1.2-0.8c-0.2-0.2-0.3-0.5-0.4-0.8C8.5,327.7,12.6,332.6,12.4,334.5
		z"/>
	<path d="M16.7,358.3c-0.1-0.1-0.3-0.3-0.2-0.4c1.2-3.8,1-7.5,0.1-11.3c0-0.1,0-0.2,0.1-0.5c0.7,0.9,0.8,1.8,0.9,2.7
		C17.9,352.1,17.9,355.2,16.7,358.3L16.7,358.3z"/>
	<path d="M3,328.1c1.6,0.2,6.3,4.8,6.9,6.5C7.6,332.6,5.2,330.2,3,328.1z"/>
	<path d="M-7.4,347.1c1.2,1.7,1.1,3.8,1.8,5.6c0.9-0.5,1.6-0.9,2.5-1.4c-0.2,1-1.8,2.3-2.7,2c-0.5-0.2-1-0.8-1.1-1.2
		C-7.1,350.7-7.2,349.1-7.4,347.1z"/>
	<path d="M1.5,352.3c0.4,1.4-3.7,3.5-5.8,3.2c0.1-0.2,0.3-0.4,0.3-0.6c0.2-1.6,1.7-2.5,3.2-1.8c0.9,0.5,1.4,0.3,1.9-0.4
		C1.1,352.5,1.3,352.4,1.5,352.3z M-0.7,354c-1-1-2-0.9-3,0.2c-0.1,0.1-0.3,0.5-0.2,0.6c0.1,0.2,0.5,0.3,0.6,0.3
		C-2.4,354.8-1.6,354.4-0.7,354z"/>
	<path d="M-1.2,343c0,1.1-0.5,1.3-1.2,1.3c-0.7,0-0.9-0.5-0.8-1c0-0.6,0.4-1.2,1.1-1C-1.6,342.5-1.4,342.9-1.2,343z"/>
	<path d="M-8.4,346.1c-0.2,0.1-0.6,0.5-1,0.5c-0.5,0-1.1-0.2-0.9-0.9c0.1-0.4,0-1.1,0.8-1C-9,344.9-8.3,345-8.4,346.1z"/>
	<path d="M0.1,356c-0.7,0.7-1.6,0.8-2.5,0.5c0.9-0.3,1.6-0.5,2.5-0.8C0,355.8,0.1,355.9,0.1,356z"/>
	<path d="M22.2,390.7c0.3-0.1,0.8-0.5,1.3-0.5s0.9,0.3,1.4,0.5c-0.2,0.5-0.3,1-0.6,1.4c-0.4,0.5-1,0.3-1.4-0.2
		C22.6,391.5,22.5,391.2,22.2,390.7z"/>
	<path d="M21.6,394c1.6-0.2,3.1-0.4,4.7-0.7c-0.2,0.3-0.2,0.4-0.3,0.5c-1.3,0.2-2.5,0.4-3.7,0.6C22.1,394.4,22,394.2,21.6,394z"/>
	<path d="M9.4,387.5c0.1,0.6-0.6,1.4,0.3,1.8c0.1,0-0.1,0.3-0.1,0.5c-0.2,1.3-0.2,2.4,0,3.6c0.1,0.9-0.4,1.9-0.7,3
		c-0.1-0.2-0.1-0.3-0.1-0.4c0.3-1.5-0.2-2.9-0.2-4.4s0.3-2.9,0.4-4.3C9.2,387.4,9.3,387.4,9.4,387.5z"/>
	<path d="M-3.4,363c-1.2-0.7-2.2-1.4-3.4-2c-0.4-0.3-0.9-0.4-1.4-0.6c1.7,0,4.8,1.6,5.6,2.9C-2.9,363.2-3.1,363.1-3.4,363L-3.4,363z
		"/>
	<path d="M-3.4,363c0,0.1-0.1,0.3-0.1,0.3c-1.1-0.4-2-0.9-3.1-1.3c0-0.1,0.1-0.2,0.1-0.3C-5.4,362.2-4.5,362.6-3.4,363L-3.4,363z"/>
	<path d="M9.5,361.3c-0.9,1.7-2.2,2.8-4,3.4c-0.2,0.1-0.4-0.1-0.6-0.1c0.1-0.2,0.1-0.5,0.3-0.6C6.6,363.1,8.1,362.2,9.5,361.3z"/>
</g>
<path d="M19.1,385c-0.4-0.3-1.2-0.3-1.7-0.1c-0.4,0.2-0.7,0.5-1,0.8c-0.2,0.3-0.4,0.7-0.3,1.1c0.1,0.2,0.2,0.3,0.4,0.4
	c0.3,0.1,0.4,0,0.6-0.2c0.1-0.1,0.1-0.2,0-0.2c-0.2-0.1-0.3-0.2-0.3-0.3c0.1-0.2,0.2-0.4,0.3-0.6c0.2-0.2,0.4-0.3,0.6-0.5
	c0.4-0.2,0.9-0.1,1.3-0.3C19.2,385.1,19.2,385,19.1,385z"/>
<path d="M16.9,386.8c-0.3-0.1-0.8,0.2-1,0.4c-0.4,0.3-0.9,0.8-1.1,1.2c-0.2,0.4-0.3,0.9-0.1,1.3c0.2,0.4,0.7,0.5,1.1,0.2
	c0.1,0,0.1-0.1,0-0.2c-0.1-0.1-0.4-0.3-0.4-0.4c0-0.3,0.2-0.6,0.4-0.8c0.2-0.3,0.4-0.6,0.7-0.9c0.2-0.2,0.4-0.3,0.6-0.5
	C17,387,17,386.9,16.9,386.8z"/>
<path d="M15,391.5c0.1-0.4,0.3-1.1,0.6-1.5c0,0,0-0.1-0.1-0.1c-0.6,0.4-0.9,0.8-1.1,1.5c-0.1,0.6,0,1.3,0.4,1.6
	c0.2,0.2,0.4,0,0.4-0.2C15.1,392.5,15,392,15,391.5z"/>
<path d="M14.8,397.4c-0.2-0.4-0.4-0.7-0.4-1.1c0-0.5,0.2-1,0.3-1.4c0.1-0.1-0.1-0.3-0.2-0.2c-0.4,0.4-0.6,1-0.7,1.6
	c-0.1,0.5,0.1,1.3,0.7,1.4C14.8,397.7,14.9,397.6,14.8,397.4z"/>
<path d="M22.7,388.7C22.7,388.8,22.7,388.8,22.7,388.7C22.6,388.8,22.7,388.9,22.7,388.7C22.7,388.8,22.7,388.8,22.7,388.7
	C22.8,388.8,22.7,388.7,22.7,388.7z"/>
<path d="M21.9,388.6c-0.5,0.1-0.8,0.5-0.8,1c0,0.3,0.4,0.8,0.6,0.4c0.1-0.3-0.1-0.5,0.1-0.7c0.2-0.3,0.8-0.2,1,0.1
	c0,0.1,0.1,0,0.1,0C22.6,388.9,22.4,388.5,21.9,388.6z"/>
<path d="M21.7,389.7c-0.1-0.3-0.7-0.1-0.9-0.1c-0.5,0.1-1.1,0.3-1.5,0.6c-0.4,0.2-0.7,0.5-0.9,1c-0.1,0.4-0.2,1,0.3,1.1
	c0.1,0,0.3,0,0.4-0.2c0.2-0.3,0-0.5,0.1-0.8c0.2-0.4,0.6-0.6,1-0.8c0.4-0.2,0.7-0.4,1.1-0.5C21.4,390,21.8,389.9,21.7,389.7z"/>
<line fill="none" x1="18.8" y1="391.9" x2="18.8" y2="391.9"/>
<path d="M18.9,393.2c0.1-0.4,0.3-0.8,0.6-1.1c0,0,0-0.1,0-0.1c-0.6-0.2-1.1,0.7-1.2,1.3c-0.1,0.4,0,0.7,0.3,1c0.2,0.2,0.7,0.3,0.9,0
	c0,0,0-0.1,0-0.1c-0.1-0.2-0.3-0.2-0.4-0.3C18.8,393.7,18.8,393.4,18.9,393.2z"/>
<path d="M18.7,395.7c0.2-0.6,0.5-1.1,0.6-1.8c0-0.2-0.2-0.2-0.3-0.2c-0.7,0.4-1.1,1.5-1.3,2.3c-0.1,0.6,0.1,1.8,1,1.6
	c0.1,0,0.2-0.2,0.2-0.3c-0.1-0.2-0.2-0.4-0.3-0.6C18.5,396.5,18.6,396.1,18.7,395.7z"/>
<path d="M26.3,389.2c-0.2-1-2.2-1.1-1.7,0c0,0,0.1,0.1,0.1,0c0.4-0.5,1-0.1,1.2,0.4c0.1,0.1,0.2,0.2,0.3,0.2
	C26.4,389.6,26.4,389.4,26.3,389.2z"/>
<path d="M27.5,390.3c-0.4-0.5-1.1-0.8-1.7-0.4c-0.2,0.1-0.1,0.5,0.2,0.4c0.4-0.1,0.8,0.4,1.1,0.6c0.3,0.3,0.4,0.9,0.8,1.2
	c0.1,0.1,0.2,0.1,0.3,0C28.5,391.5,27.8,390.7,27.5,390.3z"/>
<path d="M28.6,392.8c-0.1-0.5-0.6-0.9-1.1-1c-0.3-0.1-0.4,0.4-0.1,0.5c0.4,0.1,0.7,0.3,0.8,0.7c0.1,0.4-0.1,0.7-0.1,1
	c0,0.1,0.1,0.2,0.2,0.1C28.7,393.8,28.7,393.2,28.6,392.8z"/>
<path d="M28.3,394.7c-0.1-0.3-0.6-0.2-0.5,0.1s0,0.6,0.1,0.9c0,0.1,0.2,0.1,0.2,0.1C28.5,395.5,28.5,395.1,28.3,394.7z"/>
<path d="M21.7,386.8c-0.4-0.5-1-0.7-1.7-0.6c-1.4,0.2-1.6,2-1.3,3.1c0,0.2,0.4,0.2,0.4,0c-0.1-0.8,0.1-1.7,0.8-2.2
	c0.5-0.3,1-0.1,1.3,0.4c0.2,0.3,0.2,0.7,0.4,1c0.1,0.1,0.2,0.1,0.3,0C22.3,387.9,22,387.2,21.7,386.8z"/>
<path d="M20.9,386.7c-0.5-0.8-1.8-0.6-1.9,0.4c0,0.4,0.1,0.6,0.4,0.7c0.1,0.1,0.1,0.1,0.2,0.2C20.4,388.6,21.5,387.5,20.9,386.7z"/>
<path d="M26.5,387c-0.2-0.4-0.5-0.8-1-1c-1.1-0.4-1.7,0.7-1.6,1.6c0,0.4,0.6,0.4,0.6,0c0-0.6,0.1-1.3,0.8-1.1
	c0.3,0.1,0.5,0.3,0.6,0.6c0.2,0.3,0.1,0.7,0.2,1c0,0.1,0.1,0.1,0.2,0.1C26.8,388,26.7,387.4,26.5,387z"/>
<path d="M24.4,386.4c0,0.1-0.1,0.1-0.1,0.2c-0.1,0.1-0.2,0.3-0.1,0.5c0.1,0.5,0.8,0.4,1.1,0.2C26.3,386.7,25,385.3,24.4,386.4z"/>
<path d="M-57.9,332.7c-0.9-0.1-1.5,0.5-1.5,1.4c0,0.5,0.4,1,0.9,1c0.2,0.1,0.5,0.2,0.8,0.1c0.7-0.2,0.9-0.9,0.8-1.5
	C-57,333.1-57.3,332.7-57.9,332.7z"/>
<path d="M-47.3,335.8c-0.9-0.1-1.6,1-1,1.8c0.1,0.1,0.2,0.2,0.3,0.3c0.5,0.4,1.3,0.2,1.7-0.4C-45.9,336.7-46.6,335.9-47.3,335.8z"/>
<path d="M0.2,338.6c-3.3,0.3-6.7,1.7-9.9,2.7c-2.9,0.9-5.7,2.4-8.4,3.8c-0.3,0.2-0.2,0.6,0.2,0.6c2.9,0.1,6-2.2,8.6-3
	c3.1-1,6.9-1.4,9.7-3.3C0.7,339.2,0.6,338.6,0.2,338.6z"/>
<path d="M26.1,407.9c-0.1-0.1-0.3,0-0.2,0.1c0.2,0.7,0.4,1.3,0.4,2c0,0.6-0.1,1.3,0.1,1.9c0.1,0.2,0.4,0.2,0.4,0
	C27.2,410.7,26.6,409.1,26.1,407.9z"/>
<path d="M29.7,410.4c0-0.7-0.2-1.3-0.3-2c-0.1-0.2-0.4-0.1-0.3,0.1c0.2,0.7,0.2,1.4,0.2,2.2c0,0.6-0.1,1.2,0.1,1.7
	c0.1,0.2,0.3,0.2,0.3,0C29.9,411.8,29.7,411,29.7,410.4z"/>
<path d="M14.8,410.7c0-0.3-0.5-0.3-0.4,0c0,0.5,0,1,0,1.5c0,0.5-0.2,1.1,0,1.5c0,0.1,0.1,0.1,0.2,0.1c0.3-0.3,0.3-0.7,0.3-1.2
	C14.9,412,14.8,411.4,14.8,410.7z"/>
<path d="M17.1,410.7c0-0.1-0.2-0.1-0.2,0c-0.1,0.6-0.3,1.4-0.1,2c0,0.1,0.2,0.1,0.2,0C17.3,412.2,17.1,411.4,17.1,410.7z"/>
<path d="M16.7,412.6c-0.6,0.1-1.1,0.4-1.7,0.4c-0.7,0-1.4-0.2-2-0.6c-0.1-0.1-0.3,0.1-0.2,0.2c0.7,0.5,1.3,1,2.1,1.1
	c0.7,0.1,1.6-0.2,1.8-1C16.9,412.7,16.8,412.6,16.7,412.6z"/>
<path d="M17.9,411.1c0-0.1-0.1-0.2-0.2-0.1c-0.2,0.2-0.3,0.5-0.5,0.7c-0.2,0.4-0.4,0.7-0.7,0.9c-0.2,0.2,0.1,0.5,0.3,0.4
	C17.2,412.6,18.1,411.8,17.9,411.1z"/>
<path d="M-63.7,387.9c-1.1-0.4-2.5-0.2-3.5,0.1c-0.2,0.1-0.2,0.4,0.1,0.4c1.1,0,2.4,0.1,3.5-0.2C-63.5,388.3-63.5,388-63.7,387.9z"
	/>
<path d="M-63.4,388.1c-0.4-0.4-1.1-0.4-1.6-0.5c-0.7-0.1-1.5-0.1-2.2-0.1c-0.3,0-0.4,0.6,0,0.6c0.7,0,1.4,0.1,2.1,0.2
	c0.5,0.1,1.2,0.3,1.7,0.1C-63.4,388.4-63.3,388.2-63.4,388.1z"/>
<path d="M23.3,410.5c-0.7,0.4-1.4,1-2,1.4c-0.1,0,0,0.1,0.1,0.1C22.1,411.7,22.9,411.3,23.3,410.5C23.4,410.6,23.4,410.5,23.3,410.5
	z"/>
<path d="M19.1,418.4c-0.6,0-0.8,0.7-0.8,1.3c-0.4,0-0.9,0.4-1,0.8c-0.1,0.2-0.1,0.6,0,0.8c-0.2,0.2-0.4,0.4-0.5,0.7
	c-0.2,0.6-0.6,1.6-0.1,2.1c0.1,0.1,0.2,0.1,0.3,0c0.3-0.4,0.3-1,0.4-1.5c0-0.2,0.1-0.6,0.3-0.8c0.2,0.1,0.4,0,0.6-0.4
	c0.1-0.2-0.1-0.3-0.2-0.3c-0.1,0-0.1,0-0.2,0c0,0,0,0,0,0c-0.1-0.3,0.5-1.2,0.5-0.8h0c0,0,0,0,0,0.1c0,0.3,0.5,0.2,0.5-0.1
	c0-0.4,0-0.7,0-1c0.5-0.3,0.7-0.3,0.7,0.1c0,0.2,0,0.3,0,0.5c0,0.1,0.2,0.1,0.2,0C19.8,419.3,20,418.3,19.1,418.4z"/>
<path d="M31.2,417.3c-0.4,0.2-0.5,0.9-0.5,1.4c-0.1,0-0.2,0.1-0.3,0.2c-0.5,0.4-0.6,1.4-0.2,1.9c0.1,0.1,0.3,0,0.2-0.1
	c-0.1-0.3-0.1-0.5-0.1-0.7c0-0.2,0-0.3,0.1-0.4l0.1-0.2c0.1-0.1,0.2-0.2,0.3-0.1c0,0,0,0.1,0,0.1c0,0.2,0.3,0.1,0.3,0
	c0-0.2,0-0.4,0-0.7c0-0.2,0-0.4,0.1-0.6c0.1-0.5,0.8-0.4,0.9,0c0,0.1,0.1,0.1,0.1,0C32.2,417.4,31.8,416.9,31.2,417.3z"/>
<path d="M30.2,420.9c-0.4,0.2-0.5,0.8,0,1.1c0.1,0.1,0.2,0,0.2-0.1c0-0.2-0.1-0.4,0-0.6C30.6,421,30.4,420.8,30.2,420.9z"/>
<path d="M20.9,418.5c-0.2-1.2-1.2-2.2-2.4-1.9c-1,0.2-2.2,0.9-2,2.1c0,0.2,0.4,0.2,0.4-0.1c-0.1-0.8,1.1-1.1,1.7-1.2
	c0.9-0.2,1.3,0.6,1.5,1.4c0.1,0.2,0.1,1.1,0.5,1C21.1,419.6,21,418.9,20.9,418.5z"/>
<path d="M-85.5,419.4c0-0.3-0.5-0.4-0.6-0.1c-0.4,2.3-0.2,4.6-0.2,6.9c0,2-0.2,3.9,0.6,5.7c0.1,0.2,0.3,0.1,0.3-0.1
	C-85.4,427.6-85.6,423.5-85.5,419.4z"/>
<path d="M-75.5,360.4c-0.3-0.4-0.8-0.7-1-1.2c-0.2-0.4-1-0.1-0.8,0.3c0.2,0.6,0.7,1.1,1.2,1.5C-75.8,361.2-75.3,360.7-75.5,360.4z"
	/>
<path d="M-46.7,343C-46.8,342.9-46.9,343-46.7,343l0,0.2c0,0.1,0.1,0,0.1-0.1C-46.7,343.1-46.7,343.1-46.7,343z"/>
<path d="M-44,342.8c0-0.1-0.1-0.1-0.1-0.1c-0.2,0-0.3,0.1-0.4,0.2c-0.3,0.2-0.6,0.3-0.9,0.3c-0.6,0.1-1.4,0-1.9-0.4
	c-0.2-0.1-0.5,0.1-0.3,0.3c0.6,0.6,1.4,0.8,2.2,0.8C-45,343.8-43.8,343.5-44,342.8z"/>
<path d="M2.1,339.3c-0.8-0.2-1.8,0.1-2.6,0.2c-1.3,0.2-2.5,0.6-3.8,0.8c-0.2,0-0.2,0.3,0,0.4c1.2,0.1,2.4-0.1,3.6-0.3
	c1-0.2,2.2,0,2.9-0.8C2.3,339.5,2.3,339.4,2.1,339.3z"/>
<path d="M1.2,338.5C1.2,338.5,1.2,338.5,1.2,338.5c-0.1,0-0.2,0-0.3,0c-0.1,0-0.1,0.1-0.1,0.1c-0.3,0.1-0.6,0.2-0.8,0.4
	c-0.1,0.1-0.3,0.1-0.4,0.2c-0.2,0.1-0.1,0.4,0.2,0.4c0.1,0,0.1,0,0.2,0c0,0,0,0,0,0c0.4,0.1,0.7,0,1-0.3c0.2-0.1,0.4-0.1,0.5-0.2
	C1.8,338.9,1.5,338.4,1.2,338.5z"/>
<path d="M2.3,333.4c0-0.2-0.4-0.3-0.5-0.1c-0.4,1.8-0.5,3.7-0.4,5.5c-0.3,0-0.5,0.1-0.8,0.3c-0.4,0.3-0.1,0.9,0.4,0.7
	c0.3-0.1,0.6-0.1,0.9-0.2c0.2,0,0.4-0.2,0.4-0.4C2.1,337.3,2.5,335.4,2.3,333.4z"/>
</svg>
